#N canvas 251 494 724 630 12;
#N canvas 0 22 450 300 (subpatch) 0;
#X array bashdrum 16884 float 2;
#X coords 0 1 16884 -1 60 20 1;
#X restore 63 500 graph;
#N canvas 696 403 518 368 load-samples 0;
#X obj 41 107 soundfiler;
#X msg 41 39 bang;
#X obj 41 65 openpanel;
#X obj 158 26 loadbang;
#X msg 41 87 read -resize \$1 bashdrum;
#X obj 156 132 loadbang;
#X msg 148 203 read -resize lyonpotpourri/sound/KR55SNAR.aiff snare
;
#X msg 111 161 read -resize lyonpotpourri/sound/hi_c_12b.aiff hihat
;
#X msg 157 52 read -resize lyonpotpourri/sound/kick_11d.aiff bashdrum
;
#X connect 1 0 2 0;
#X connect 2 0 4 0;
#X connect 3 0 8 0;
#X connect 4 0 0 0;
#X connect 5 0 7 0;
#X connect 5 0 6 0;
#X connect 6 0 0 0;
#X connect 7 0 0 0;
#X connect 8 0 0 0;
#X restore 432 229 pd load-samples;
#N canvas 525 461 651 385 hatter 0;
#X obj 274 72 sig~ 1;
#X obj 74 47 mask~ 1 0.7 0.7 0.7 1 0 0.5 0.6 1 0.7 1 0 1 0.7 0 0;
#X obj 74 19 inlet~;
#X obj 74 244 vdp~ 500;
#X floatatom 100 218 10 0 0 0 - - -;
#X text 137 245 compensate for bashfest latency;
#X floatatom 135 275 5 0 0 0 - - -;
#X obj 74 270 *~ 0.15;
#X obj 74 98 lyonpotpourri/player~ hihat 1;
#X obj 35 361 throw~ \$0-bashfest-output;
#X obj 74 304 throw~ \$0-bashfest-output;
#X msg 445 136 16384;
#X obj 445 162 /;
#X obj 445 86 t b b;
#X obj 445 32 loadbang;
#X obj 445 61 bng 15 250 50 0 empty empty empty 17 7 0 10 -262144 -1
-1;
#X obj 445 185 * 1000;
#X obj 516 138 samplerate~;
#X connect 0 0 8 1;
#X connect 1 0 8 0;
#X connect 2 0 1 0;
#X connect 3 0 7 0;
#X connect 4 0 3 1;
#X connect 6 0 7 1;
#X connect 7 0 10 0;
#X connect 8 0 3 0;
#X connect 11 0 12 0;
#X connect 12 0 16 0;
#X connect 13 0 11 0;
#X connect 13 1 17 0;
#X connect 14 0 15 0;
#X connect 15 0 13 0;
#X connect 16 0 4 0;
#X connect 17 0 12 1;
#X restore 111 321 pd hatter;
#N canvas 0 22 450 300 (subpatch) 0;
#X array hihat 9097 float 2;
#X coords 0 1 9097 -1 60 20 1;
#X restore 63 426 graph;
#N canvas 0 23 462 312 metronome-control 0;
#X floatatom 52 88 5 0 0 0 - - -;
#X msg 51 112 tempo \$1;
#X msg 127 59 120;
#X msg 51 55 60;
#X msg 138 114 pause;
#X msg 190 114 resume;
#X obj 81 150 outlet;
#X msg 92 56 140;
#X connect 0 0 1 0;
#X connect 1 0 6 0;
#X connect 2 0 0 0;
#X connect 3 0 0 0;
#X connect 4 0 6 0;
#X connect 5 0 6 0;
#X connect 7 0 0 0;
#X restore 185 192 pd metronome-control;
#N canvas 441 423 622 472 processor-control 0;
#X obj 91 288 outlet;
#N canvas 301 93 1087 672 set-processor-odds 0;
#X obj 135 576 outlet;
#X msg 440 194 setodds 0 0 0 0 0 1;
#X text 591 193 sweepreson;
#X msg 439 340 setodds 0 0 0 0 0 0 0 0 0 0 0 1;
#X msg 436 505 setodds 0 0 0 0 0 0 0 0 0 0 0 0 0 0 0 0 0 1;
#X msg 439 471 setodds 0 0 0 0 0 0 0 0 0 0 0 0 0 0 0 0 1;
#X msg 436 533 setodds 0 0 0 0 0 0 0 0 0 0 0 0 0 0 0 0 0 0 1;
#X text 756 533 resonadsr;
#X msg 435 559 setodds 0 0 0 0 0 0 0 0 0 0 0 0 0 0 0 0 0 0 0 1;
#X text 516 75 transpose;
#X msg 441 78 setodds 1;
#X text 533 99 ringmod;
#X msg 442 100 setodds 0 1;
#X text 566 169 truncate;
#X msg 441 169 setodds 0 0 0 0 1;
#X msg 441 263 setodds 0 0 0 0 0 0 0 0 1;
#X msg 135 199 flatodds;
#X text 410 32 Processors by position in list. Any list combination
will select a set of processors in specified weighting for random selection.
;
#X text 541 123 flange;
#X msg 440 124 setodds 0 0 1;
#X text 562 145 butterworth filters;
#X msg 442 144 setodds 0 0 0 1;
#X msg 442 216 setodds 0 0 0 0 0 0 1;
#X text 593 215 comb;
#X text 613 238 slidecomb;
#X msg 441 239 setodds 0 0 0 0 0 0 0 1;
#X text 634 263 reverb;
#X msg 440 289 setodds 0 0 0 0 0 0 0 0 0 1;
#X text 638 292 elliptical filters;
#X msg 440 315 setodds 0 0 0 0 0 0 0 0 0 0 1;
#X text 656 317 distortion/compression;
#X text 663 337 feedback;
#X msg 438 367 setodds 0 0 0 0 0 0 0 0 0 0 0 0 1;
#X text 672 366 reverse;
#X msg 438 391 setodds 0 0 0 0 0 0 0 0 0 0 0 0 0 1;
#X text 697 390 flam1;
#X msg 438 415 setodds 0 0 0 0 0 0 0 0 0 0 0 0 0 0 1;
#X text 712 415 flam2;
#X msg 438 441 setodds 0 0 0 0 0 0 0 0 0 0 0 0 0 0 0 1;
#X text 719 443 expflam;
#X text 736 466 comb4;
#X text 748 503 ringmod/feedback;
#X text 770 559 stereo vdelay;
#X msg 17 100 setodds 0.25 0.5 1 0 0 1 0.2 0 0 1 1 0.1 0.1 0 0 0.3
;
#X msg 30 125 setodds 1 1 1 1 1 1 1 1 0 1 1 0 1 0.2 0.2 0.2 1 1 1 1
;
#X text 40 80 a couple distributions;
#X text 133 165 make every processor have an equal chance of being
chosen;
#X connect 1 0 0 0;
#X connect 3 0 0 0;
#X connect 4 0 0 0;
#X connect 5 0 0 0;
#X connect 6 0 0 0;
#X connect 8 0 0 0;
#X connect 10 0 0 0;
#X connect 12 0 0 0;
#X connect 14 0 0 0;
#X connect 15 0 0 0;
#X connect 16 0 0 0;
#X connect 19 0 0 0;
#X connect 21 0 0 0;
#X connect 22 0 0 0;
#X connect 25 0 0 0;
#X connect 27 0 0 0;
#X connect 29 0 0 0;
#X connect 32 0 0 0;
#X connect 34 0 0 0;
#X connect 36 0 0 0;
#X connect 38 0 0 0;
#X connect 43 0 0 0;
#X connect 44 0 0 0;
#X restore 166 181 pd set-processor-odds;
#N canvas 0 23 729 325 efficiency 0;
#X msg 53 138 mute \$1;
#X obj 53 45 tgl 15 0 empty empty empty 17 7 0 10 -262144 -1 -1 0 1
;
#X msg 168 119 block_dsp \$1;
#X obj 168 89 tgl 15 0 empty empty empty 17 7 0 10 -262144 -1 -1 0
1;
#X obj 168 207 outlet;
#X text 195 83 turn off [bashfest~] DSP to hear the sound currently
in the array \, without added processing;
#X text 74 39 turn off the [bashfest~] object and save CPU cycles;
#X connect 0 0 4 0;
#X connect 1 0 0 0;
#X connect 2 0 4 0;
#X connect 3 0 2 0;
#X restore 276 247 pd efficiency;
#N canvas 415 474 457 294 process-amount 0;
#X obj 78 207 outlet;
#N canvas 680 241 454 304 setodds 0;
#X msg 124 131 minimum_process \$1;
#X obj 158 91 unpack f f;
#X msg 294 131 maximum_process \$1;
#X obj 125 163 outlet;
#X obj 159 58 inlet;
#X connect 0 0 3 0;
#X connect 1 0 0 0;
#X connect 1 1 2 0;
#X connect 2 0 3 0;
#X connect 4 0 1 0;
#X restore 79 165 pd setodds;
#X msg 79 130 0 1;
#X msg 36 130 0 0;
#X msg 120 131 1 1;
#X msg 156 131 1 2;
#X msg 194 131 2 4;
#X obj 120 94 loadbang;
#X msg 234 133 4 8;
#X text 230 112 lots of DSP;
#X text 23 109 no DSP;
#X text 23 19 set the minimum and maximum number of processor units
per event. More processing results in cooler sounds \, but could also
overtax your CPU.;
#X connect 1 0 0 0;
#X connect 2 0 1 0;
#X connect 3 0 1 0;
#X connect 4 0 1 0;
#X connect 5 0 1 0;
#X connect 6 0 1 0;
#X connect 7 0 4 0;
#X connect 8 0 1 0;
#X restore 237 217 pd process-amount;
#X msg 91 61 grab;
#X text 89 26 replace original sound with whatever processed version
is currently in the array;
#X connect 1 0 0 0;
#X connect 2 0 0 0;
#X connect 3 0 0 0;
#X connect 4 0 0 0;
#X restore 32 193 pd processor-control;
#N canvas 0 22 450 300 (subpatch) 0;
#X array snare 9284 float 2;
#X coords 0 1 9284 -1 60 20 1;
#X restore 63 463 graph;
#N canvas 46 411 513 413 bassdrum 0;
#X obj 256 109 sig~ 1;
#X obj 35 7 inlet~;
#X obj 35 270 vdp~ 500;
#X msg 327 137 16384;
#X obj 327 163 /;
#X obj 327 87 t b b;
#X floatatom 61 243 10 0 0 0 - - -;
#X obj 327 33 loadbang;
#X obj 327 62 bng 15 250 50 0 empty empty empty 17 7 0 10 -262144 -1
-1;
#X text 98 271 compensate for bashfest latency;
#X floatatom 73 308 5 0 0 0 - - -;
#X obj 327 186 * 1000;
#X obj 35 46 mask~ 1 0 1 1 1 0 0 0 1 0 0 0 1 0 1 0;
#X obj 35 327 *~ 0.4;
#X obj 77 292 hsl 90 8 0 0.5 0 0 empty empty empty -2 -8 0 10 -261820
-1 -1 0 1;
#X obj 35 147 lyonpotpourri/player~ bashdrum 1;
#X obj 35 361 throw~ \$0-bashfest-output;
#X obj 359 115 samplerate~;
#X connect 0 0 15 1;
#X connect 1 0 12 0;
#X connect 2 0 13 0;
#X connect 3 0 4 0;
#X connect 4 0 11 0;
#X connect 5 0 3 0;
#X connect 5 1 17 0;
#X connect 6 0 2 1;
#X connect 7 0 8 0;
#X connect 8 0 5 0;
#X connect 10 0 13 1;
#X connect 11 0 6 0;
#X connect 12 0 15 0;
#X connect 13 0 16 0;
#X connect 14 0 10 0;
#X connect 15 0 2 0;
#X connect 17 0 4 1;
#X restore 25 320 pd bassdrum;
#X text 192 278 args: array \, maxdur \, latency \, voices;
#X obj 185 297 lyonpotpourri/bashfest~ snare 2000 16384 12;
#X obj 185 232 lyonpotpourri/samm~ 120 4;
#X obj 185 258 lyonpotpourri/mask~ 0 0 0 0 1 0 0 0 0 0 0 0 1 0 1 1
;
#X obj 24 20 lpp-icon bashfest~;
#X text 221 53 - bashfest~ is a click triggered soundfile player with
random DSP., f 74;
#X obj 185 398 lpp-meters;
#X obj 192 343 catch~ \$0-bashfest-output;
#X text 25 123 Sample-accurate playback from a buffer \, with click
triggers. Random DSP is applied to each note. [bashfest~] is triggered
by clicks in its inlet.;
#X text 365 457 see also:;
#X obj 345 474 cnv 15 100 20 empty empty lyonpotpourri/player~ 20 12
0 14 -262144 -1 0;
#X connect 4 0 10 0;
#X connect 5 0 9 0;
#X connect 9 0 14 0;
#X connect 9 1 14 1;
#X connect 10 0 2 0;
#X connect 10 0 7 0;
#X connect 10 0 11 0;
#X connect 11 0 9 0;
#X connect 15 0 14 0;
#X connect 15 0 14 1;
