#N canvas 512 271 673 608 12;
#N canvas 348 477 724 547 load-a-sound 0;
#X obj 49 245 soundfiler;
#X obj 49 119 openpanel;
#X obj 49 92 inlet;
#X msg 49 142 read -resize \$1 bvplay-demo-array;
#X obj 307 107 loadbang;
#X msg 307 143 read -resize sound/voice.wav bvplay-demo-array;
#X connect 1 0 3 0;
#X connect 2 0 1 0;
#X connect 3 0 0 0;
#X connect 4 0 5 0;
#X connect 5 0 0 0;
#X restore 219 425 pd load-a-sound;
#X obj 219 396 bng 15 250 50 0 empty empty empty 0 -6 0 8 -262144 -1
-1;
#N canvas 0 22 450 300 (subpatch) 0;
#X array bvplay-demo-array 62079 float 2;
#X coords 0 1 62079 -1 100 70 1 0 0;
#X restore 210 502 graph;
#X text 371 344 args: name \, chans \, taper;
#X msg 42 232 taper \$1;
#X floatatom 42 211 5 5 250 0 - #0-bvplay-taper -;
#X text 107 231 set fadein/fadeout for each note;
#X text 185 264 example notes;
#X msg 67 264 0 500 1.2 1;
#X msg 88 284 900 1000 -0.5 1;
#X text 238 397 <- first load in a sound (recommend at least 5 secs)
or use default sound loaded if you prefer;
#X obj 42 387 lpp-meters;
#X obj 39 28 lpp-icon bvplay~;
#X text 262 56 - enveloped array playback;
#X obj 42 348 lyonpotpourri/bvplay~ bvplay-demo-array 1 30;
#X text 39 130 Send note statements to [bvplay~] in list format: [skip
duration increment amplitude]. [bvplay~] will omit overlapped notes
\, but multiple units can be used for polyphony., f 52;
#X text 211 288 negative increments ok;
#N canvas 155 117 450 300 init 0;
#X obj 41 42 loadbang;
#X msg 41 138 \; \$1 100;
#X obj 41 105 symbol \$0-bvplay-taper;
#X obj 41 75 bng 15 250 50 0 empty empty empty 17 7 0 10 -262144 -1
-1;
#X connect 0 0 3 0;
#X connect 2 0 1 0;
#X connect 3 0 2 0;
#X restore 219 451 pd init;
#X connect 1 0 0 0;
#X connect 4 0 14 0;
#X connect 5 0 4 0;
#X connect 8 0 14 0;
#X connect 9 0 14 0;
#X connect 14 0 11 0;
#X connect 14 0 11 1;
