#N canvas 600 60 473 363 12;
#X floatatom 25 246 5 0 0 0 - - -;
#X obj 25 212 lyonpotpourri/click2float~;
#X obj 25 146 lyonpotpourri/samm~ 120 1;
#X obj 25 178 lyonpotpourri/mask~ 2 4 6.333 8;
#X text 248 47 - convert a click to a float;
#X obj 24 19 lpp-icon click2float~;
#X msg 26 309 \; pd dsp \$1;
#X obj 26 284 tgl 15 0 empty empty empty 17 7 0 10 -262144 -1 -1 0
1;
#X text 53 287 DACs must be on for this to work;
#X connect 1 0 0 0;
#X connect 2 0 3 0;
#X connect 3 0 1 0;
#X connect 7 0 6 0;
