#N canvas 600 60 625 490 12;
#X obj 45 195 osc~;
#X obj 45 126 lyonpotpourri/samm~ 120 1;
#X obj 45 149 lyonpotpourri/mask~ 440 550 660 880;
#X obj 45 172 lyonpotpourri/clickhold~;
#X obj 45 247 lpp-meters;
#X obj 41 16 lpp-icon clickhold~;
#X text 269 44 - convert a click to sustained signal;
#X text 229 128 sample-accurate clock at 120 BPM;
#X text 297 148 loop through sequence;
#X text 220 175 sustain clicks for continuous control of oscillator
frequency;
#X connect 0 0 4 0;
#X connect 0 0 4 1;
#X connect 1 0 2 0;
#X connect 2 0 3 0;
#X connect 3 0 0 0;
