#N canvas 555 371 802 827 12;
#N canvas 0 22 450 300 (subpatch) 0;
#X array cdemo_impulse 240000 float 2;
#X coords 0 1 240000 -1 200 100 1 0 0;
#X restore 32 134 graph;
#N canvas 0 22 450 300 (subpatch) 0;
#X array cdemo_source 62079 float 2;
#X coords 0 1 62079 -1 200 100 1 0 0;
#X restore 32 253 graph;
#N canvas 0 22 450 300 (subpatch) 0;
#X array cdemo_dest 720000 float 2;
#X coords 0 1 720000 -1 200 100 1 0 0;
#X restore 32 372 graph;
#X obj 280 342 bng 15 250 50 0 empty empty empty 17 7 0 10 -262144
-1 -1;
#X obj 280 289 r convo_demo_msg;
#X msg 39 714 convolve;
#X obj 535 449 tabplay~ cdemo_dest;
#X obj 535 425 bng 15 250 50 0 empty empty empty 17 7 0 10 -262144
-1 -1;
#X msg 36 495 bang;
#X obj 39 735 s convo_demo_msg;
#X text 299 343 operation completion bang;
#X msg 36 567 bang;
#X text 34 627 ... or build a synthetic impulse;
#N canvas 715 441 450 300 sound-source 0;
#X obj 104 88 soundfiler;
#X obj 104 52 openpanel;
#X msg 104 70 read -resize \$1 cdemo_source;
#X obj 104 34 inlet;
#X connect 1 0 2 0;
#X connect 2 0 0 0;
#X connect 3 0 1 0;
#X restore 36 519 pd sound-source;
#X obj 280 319 lyonpotpourri/convolver~ cdemo_source cdemo_impulse
cdemo_dest, f 62;
#X obj 30 19 lpp-icon convolver~;
#X text 247 46 - non-real-time convolution;
#N canvas 879 406 1141 484 build_synthetic_impulse 0;
#X obj 121 403 s convo_demo_msg;
#X msg 121 142 noiseimp \$1;
#X floatatom 121 94 5 0 0 0 - - -;
#X msg 209 356 spikeimp \$1;
#X floatatom 209 328 5 0 0 0 - - -;
#X obj 735 421 array size cdemo_impulse;
#X obj 735 376 *;
#X obj 825 318 samplerate~;
#X floatatom 826 344 5 0 0 0 - - -;
#X obj 735 216 bng 15 250 50 0 empty empty empty 17 7 0 10 -262144
-1 -1;
#X msg 735 322 20;
#X msg 923 318 \; cdemo_impulse const 0;
#X obj 735 266 t b b b;
#X text 579 323 new length in seconds:;
#X text 767 217 resize impulse array length;
#X text 214 120 parameter is slope (negative values produce convex
impulse shapes \; positive slopes produce concave impulse shapes. Larger
values give more extreme results.);
#X text 262 287 parameter is density of spikes per second \; slope
is fixed;
#X text 184 85 produce a smooth \, decaying \, white noise impulse
;
#X msg 121 55 -3;
#X msg 160 293 50;
#X msg 209 293 6;
#X text 157 248 produce a spiky impulse \, which may sound more like
lots of echos \, rather than reverberation;
#X connect 1 0 0 0;
#X connect 2 0 1 0;
#X connect 3 0 0 0;
#X connect 4 0 3 0;
#X connect 6 0 5 0;
#X connect 7 0 8 0;
#X connect 8 0 6 1;
#X connect 9 0 12 0;
#X connect 10 0 6 0;
#X connect 12 0 10 0;
#X connect 12 1 7 0;
#X connect 12 2 11 0;
#X connect 18 0 2 0;
#X connect 19 0 4 0;
#X connect 20 0 4 0;
#X restore 37 652 pd build_synthetic_impulse;
#X obj 535 567 lpp-meters;
#X text 77 496 1 find a soundfile to convolve (or use pre-loaded default)
;
#X text 75 568 2 find an impulse response (or use generated default)
;
#X text 37 694 3 perform convolution;
#X text 554 425 4 play convolution result;
#N canvas 1002 896 588 436 init 0;
#X obj 25 68 soundfiler;
#X obj 25 25 loadbang;
#X obj 26 167 s convo_demo_msg;
#X msg 26 143 noiseimp -5;
#X obj 26 118 loadbang;
#X msg 25 46 read -resize sound/voice.wav cdemo_source;
#X text 94 120 generate default impulse;
#X text 96 27 default sound source to reverberate;
#X obj 305 366 array size cdemo_impulse;
#X obj 305 215 loadbang;
#X obj 305 251 t b b;
#X msg 305 287 5;
#X obj 305 330 *;
#X obj 354 277 samplerate~;
#X floatatom 354 306 5 0 0 0 - - -;
#X text 300 180 default to a 5-second impulse;
#X obj 68 223 loadbang;
#X obj 68 259 t b b;
#X obj 68 338 *;
#X obj 117 285 samplerate~;
#X floatatom 117 314 5 0 0 0 - - -;
#X obj 68 374 array size cdemo_dest;
#X msg 68 295 15;
#X text 39 204 allocate space for the reverb;
#X connect 1 0 5 0;
#X connect 3 0 2 0;
#X connect 4 0 3 0;
#X connect 5 0 0 0;
#X connect 9 0 10 0;
#X connect 10 0 11 0;
#X connect 10 1 13 0;
#X connect 11 0 12 0;
#X connect 12 0 8 0;
#X connect 13 0 14 0;
#X connect 14 0 12 1;
#X connect 16 0 17 0;
#X connect 17 0 22 0;
#X connect 17 1 19 0;
#X connect 18 0 21 0;
#X connect 19 0 20 0;
#X connect 20 0 18 1;
#X connect 22 0 18 0;
#X restore 279 378 pd init;
#X obj 535 480 lyonpotpourri/killdc~;
#N canvas 1232 564 373 220 impulse-source 0;
#X obj 48 133 soundfiler;
#X obj 48 77 openpanel;
#X msg 48 105 read -resize \$1 cdemo_impulse;
#X obj 48 49 inlet;
#X connect 1 0 2 0;
#X connect 2 0 0 0;
#X connect 3 0 1 0;
#X restore 36 595 pd impulse-source;
#X connect 4 0 14 0;
#X connect 5 0 9 0;
#X connect 6 0 24 0;
#X connect 7 0 6 0;
#X connect 8 0 13 0;
#X connect 11 0 25 0;
#X connect 14 0 3 0;
#X connect 24 0 18 0;
#X connect 24 0 18 1;
