#N canvas 600 60 486 409 12;
#X floatatom 38 244 5 0 0 0 - - -;
#N canvas 600 60 450 300 messages 0;
#X obj 86 215 s counter.msgs;
#X msg 87 118 minmax 20 30;
#X msg 217 120 direction \$1;
#X msg 218 58 1;
#X msg 262 84 -1;
#X text 248 58 forward;
#X text 291 83 backward;
#X msg 191 174 setnext 25;
#X text 76 99 reset boundaries;
#X text 269 174 set next value;
#X connect 1 0 0 0;
#X connect 2 0 0 0;
#X connect 3 0 2 0;
#X connect 4 0 2 0;
#X connect 7 0 0 0;
#X restore 131 240 pd messages;
#X obj 46 154 r counter.msgs;
#X text 238 185 args: minimum \, maximum;
#X text 216 241 <- more here;
#X obj 38 208 lyonpotpourri/click2float~;
#X obj 36 14 lpp-icon counter~;
#X text 239 43 - click-driven counter;
#X msg 40 317 \; pd dsp \$1;
#X obj 40 291 tgl 15 0 empty empty empty 17 7 0 10 -262144 -1 -1 0
1;
#X text 58 292 DACs must be on for this to work;
#X obj 38 122 lyonpotpourri/samm~ 60 2;
#X obj 38 183 lyonpotpourri/counter~ 1 10;
#X connect 2 0 12 0;
#X connect 5 0 0 0;
#X connect 9 0 8 0;
#X connect 11 0 12 0;
#X connect 12 0 5 0;
