#N canvas 103 332 691 625 12;
#X obj 281 255 click2bang~;
#X obj 281 278 bng 15 250 50 0 empty empty empty 17 7 0 10 -262144
-1 -1;
#X obj 52 159 r dmach-msgs;
#N canvas 476 235 592 383 operation 0;
#X obj 29 285 s dmach-msgs;
#X msg 69 40 arm 1;
#X msg 89 70 mute 0;
#X msg 28 15 show 1;
#X msg 115 149 tempo \$1;
#X floatatom 115 128 5 0 0 0 - - -;
#X msg 115 106 60;
#X msg 155 105 134;
#X text 171 130 change the tempo;
#X text 114 39 prepare to play ptn 1;
#X text 137 67 now play it;
#X text 78 18 show sequence data;
#X msg 105 257 instant_recall \$1;
#X obj 105 233 tgl 15 0 empty empty empty 17 7 0 10 -262144 -1 -1 1
1;
#X text 125 206 by default patterns are recalled in rhythm at the end
of the last pattern. Setting instant_recall to 1 means you can instantly
loop or play a sequence.;
#X connect 1 0 0 0;
#X connect 2 0 0 0;
#X connect 3 0 0 0;
#X connect 4 0 0 0;
#X connect 5 0 4 0;
#X connect 6 0 5 0;
#X connect 7 0 5 0;
#X connect 12 0 0 0;
#X connect 13 0 12 0;
#X restore 321 407 pd operation;
#X obj 203 545 s bassgain;
#X obj 313 231 s raw-dmach-data;
#N canvas 569 435 746 410 saved-patterns 0;
#X obj 130 229 r raw-dmach-data;
#X msg 130 105 listraw;
#X obj 130 141 s dmach-msgs;
#N canvas 758 132 636 491 saved 0;
#X msg 10 54 readraw 0 4 0 4 1 1 0 1 0.8 1.49998 1 1 1.99997 1 0.8
3.49995 1 7 1 1 0 0.7 1 0.499993 1 0.8333 0.999986 1 1.111 1.74995
1 1.111 2.49997 1 1.333 2.99996 0.666 1.653 3.49995 2 9 1 1 0.499993
0.7 1 0.749964 1 1 1.49998 0.7 1 1.74995 1 1 2.49997 0.7 1 2.74999
0.5 1 3.24998 1 1 3.49995 0.7 1 3.74997 3 2 1 1 0.999986 1 1 2.99996
5 4 1 1.05 0 1 1.05 0.999986 1 1 1.99997 1 0.9 2.99996;
#X obj 10 158 s dmach-msgs;
#X connect 0 0 1 0;
#X restore 356 50 pd saved;
#X obj 130 309 print;
#X text 196 107 report current pattern to list outlet;
#X msg 403 447 68 23 20 16 53 18 14 32 5 58 50 8 33 28 3 29 52 62 70
35 13 48 42 69 26 12 37 39 17 0;
#X obj 403 397 list prepend set;
#X obj 403 421 list trim;
#N canvas 1345 758 920 579 capture-pattern-for-reuse 0;
#X msg 30 131 readraw 5 4 1 6 1 0.8333 0 1 1 0.999975 0.7 0.8333 1.49996
1 1.25 2.49998 1 1 2.99997 0.7 1.11 3.49996 2 10 1 1.1 0 0.7 0.8 0.399999
0.7 0.8 0.799999 0.7 0.8 1.2 0.7 0.8 1.6 1 1 2 0.7 0.8 2.4 0.7 0.8
2.8 1 1.2 3.19999 0.7 0.8 3.59999 3 2 1 1 0.999975 1 1 3.49996 4 4
1 80 0 1 100 0.999975 1 110 2 1 120 2.99997 6 4 1 1 0 0.7 1 0.999975
0.7 1 2 0.7 1 2.99997 7 13 1 1 0 0.5 1 0.249994 0.7 1 0.499987 1 1
0.999975 0.5 1 1.24997 0.7 1 1.49996 1 1 2 0.5 1 2.24999 0.7 1 2.49998
0.9 1 2.74998 1 1 2.99997 0.7 1 3.49996 0.7 1 3.75 8 3 1 1 0.999975
1 1 2.49998 0.8 1 3.49996;
#X obj 30 68 list prepend set;
#X obj 30 92 list trim;
#X obj 30 40 r raw-dmach-data;
#X text 132 88 use generated list to read in a pattern;
#X connect 1 0 2 0;
#X connect 2 0 0 0;
#X connect 3 0 1 0;
#X restore 129 178 pd capture-pattern-for-reuse;
#X obj 130 276 spigot;
#X obj 208 256 tgl 15 0 empty empty empty 17 7 0 10 -262144 -1 -1 0
1;
#X text 229 254 see pattern in Pd window if you like;
#X connect 0 0 10 0;
#X connect 1 0 2 0;
#X connect 7 0 8 0;
#X connect 8 0 6 0;
#X connect 10 0 4 0;
#X connect 11 0 10 1;
#X restore 321 461 pd saved-patterns;
#X obj 206 520 hsl 64 12 0 2 0 0 empty s_bassgain empty -2 -8 0 10
-261756 -1 -1 3400 1;
#N canvas 515 23 653 793 pattern-tutorial 0;
#X text 31 19 You can build up patterns 1 line at a time. Here's how.
;
#X text 16 62 1 make sure the sequencer is off;
#X obj 31 116 s dmach-msgs;
#X msg 31 91 nosequence;
#X text 21 149 2 Define the bar. First number is the bar number. Second
number is the quarternote count. 4 would be 4/4. 3 would be 3/4. 3.5
would be 7/8. Since you can use any fraction you like there is considerable
time flexibility.;
#X msg 26 213 store 5 4;
#X text 103 215 put a 4/4 into bar number 5;
#X obj 26 241 s dmach-msgs;
#X text 27 285 3 Write your bass drum part - 4 on the floor in this
case.;
#X msg 34 324 slotamps 5 6 4 1 0.7 0.7 0.7;
#X obj 34 349 s dmach-msgs;
#X obj 38 496 s dmach-msgs;
#X msg 38 471 slotamps 5 3 8 0 0 1 0 0 0 0 1;
#X obj 38 598 s dmach-msgs;
#X msg 38 564 slotamps 5 7 16 1 0.5 0.7 0 1 0.5 0.7 0 1 0.5 0.7 0.9
1 0 0.7 0.7;
#X obj 42 690 s dmach-msgs;
#X text 38 629 6 Now we'll add a line with pitch variation. First we
write the rhythm.;
#X text 44 721 Here's the interval pattern:;
#X obj 38 786 s dmach-msgs;
#X text 132 783 after the bar number and slot \, we give one transposition
value for each attack;
#X obj 40 903 s dmach-msgs;
#X msg 40 878 slotamps 5 2 10 1 0.7 0.7 0.7 0.7 1 0.7 0.7 1 0.7;
#X msg 38 761 slotincrs 5 1 0.8333 1 0.8333 1.25 1 1.11;
#X msg 42 665 slotamps 5 1 8 1 0 1 0.7 0 1 1 0.7;
#X text 42 933 8 We'll emphasize the pattern with transposition;
#X obj 45 982 s dmach-msgs;
#X obj 49 1061 s dmach-msgs;
#X msg 49 1036 slotamps 5 8 8 0 0 1 0 0 1 0 0.8;
#X obj 52 1195 s dmach-msgs;
#X obj 220 1115 t b b;
#X obj 220 1089 bng 15 250 50 0 empty empty empty 17 7 0 10 -262144
-1 -1;
#X text 36 444 4 Now let's add a snare part.;
#X text 35 378 The arguments are: bar number \, slot number (in this
patch slot 6 is driving a bass drum) \, bar subdivision (this must
be an integer) and an attack pattern with numbers corresponding to
amplitude (zero of course is a rest).;
#X text 38 847 7 Let's add some quintuplet cymbals.;
#X text 43 1005 9 A couple claps.;
#X text 45 1089 10 Finally a bass line.;
#X text 164 1186 Note the order of messaging. A slotamps message sets
all its increments to 1 so the slotincrs message must come after it.
;
#X text 36 528 5 Add the hihat fill.;
#X msg 44 957 slotincrs 5 2 1.1 0.8 0.8 0.8 0.8 1 0.8 0.8 1.2 0.8;
#X text 47 1252 If you want to effect more complex subdivisions of
the bar \, read my paper for instructions on how to do that.;
#X msg 285 1143 slotamps 5 4 4 1 1 1 1;
#X msg 52 1142 slotincrs 5 4 80 100 110 120;
#X connect 3 0 2 0;
#X connect 5 0 7 0;
#X connect 9 0 10 0;
#X connect 12 0 11 0;
#X connect 14 0 13 0;
#X connect 21 0 20 0;
#X connect 22 0 18 0;
#X connect 23 0 15 0;
#X connect 27 0 26 0;
#X connect 29 0 41 0;
#X connect 29 1 40 0;
#X connect 30 0 29 0;
#X connect 38 0 25 0;
#X connect 40 0 28 0;
#X connect 41 0 28 0;
#X restore 321 489 pd pattern-tutorial;
#X text 304 276 pattern downbeat;
#N canvas 878 276 677 330 playback 0;
#X obj 10 285 s dmach-msgs;
#X msg 218 97 recall \$1;
#X msg 218 41 0;
#X msg 256 41 1;
#X msg 300 97 nosequence;
#X msg 299 41 2;
#X msg 335 41 3;
#X msg 373 41 4;
#X msg 195 193 loopsequence 0 0 0 1 0 0 1 1 2 2 2 2 3 0 0 0 0 3 3 4
2 2 3 4 4 4 1 4 3 3 3;
#X obj 195 148 loadbang;
#X msg 10 203 playsequence 3 4 3 4;
#X text 10 175 play one time only;
#X text 337 73 select a stored pattern;
#X text 283 170 loop a pattern sequence;
#X obj 217 122 s dmach-msgs;
#X obj 218 73 t f b;
#X text 214 227 another sequence;
#X text 378 98 this turns off sequencer mode;
#X msg 196 242 loopsequence 1 1 1 3 1 1 4 6 4 6 6 3 4 1 1 1 6 6 6 6
6 6 6 6 6;
#X obj 195 169 delay 100;
#X msg 406 41 5;
#X msg 439 41 6;
#X connect 1 0 14 0;
#X connect 2 0 15 0;
#X connect 3 0 15 0;
#X connect 4 0 14 0;
#X connect 5 0 15 0;
#X connect 6 0 15 0;
#X connect 7 0 15 0;
#X connect 8 0 0 0;
#X connect 9 0 19 0;
#X connect 10 0 0 0;
#X connect 15 0 1 0;
#X connect 15 1 4 0;
#X connect 18 0 0 0;
#X connect 19 0 8 0;
#X connect 20 0 15 0;
#X connect 21 0 15 0;
#X restore 321 353 pd playback;
#N canvas 846 755 500 279 stored-patterns 0;
#N canvas 914 572 1033 649 pat0 0;
#X obj 92 588 s dmach-msgs;
#X msg 210 111 store 0 4;
#X msg 15 188 slotamps 0 0 8 1 0 0 1 1 0 0 1;
#X msg 14 164 slotincrs 0 0 1 0.8 1 0.8;
#X msg 268 151 slotamps 0 2 16 0 0 1 0.7 0 0 1 0.7 0 0 1 0.7 0 0.5
1 0.7;
#X msg 252 211 slotamps 0 3 4 0 1 0 1;
#X obj 15 142 t b b;
#X obj 86 54 bng 15 250 50 0 empty empty empty 17 7 0 10 -262144 -1
-1;
#X obj 339 289 t b b;
#X msg 341 344 slotamps 0 1 16 1 0 0.7 0 1 0 0 1 0 0 1 0 1 0 0.666
;
#X msg 339 325 slotincrs 0 1 1 1 0.8333 1.111 1.111 1.333 1.653;
#X msg 238 454 slotamps 0 4 8 1 0 0 1 1 0 0 1;
#X msg 231 432 slotincrs 0 4 60 222 66.6 88.65;
#X msg 179 491 slotamps 0 5 4 1 1 1 1;
#X msg 155 511 slotincrs 0 5 1.05 1.05 1 0.9;
#X msg 424 225 slotamps 0 3 16 0 0 0 0 1 1 0 1 1 0 0.5 0.7 0.9 1 1
1;
#X obj 162 435 t b b;
#X obj 145 55 loadbang;
#X obj 221 372 t b b;
#X obj 67 84 t b b b b b b;
#X text 444 210 snare rush;
#X text 263 194 normal snare;
#X connect 1 0 0 0;
#X connect 2 0 0 0;
#X connect 3 0 0 0;
#X connect 4 0 0 0;
#X connect 5 0 0 0;
#X connect 6 0 3 0;
#X connect 6 1 2 0;
#X connect 7 0 19 0;
#X connect 8 0 10 0;
#X connect 8 1 9 0;
#X connect 9 0 0 0;
#X connect 10 0 0 0;
#X connect 11 0 0 0;
#X connect 12 0 0 0;
#X connect 13 0 0 0;
#X connect 14 0 0 0;
#X connect 15 0 0 0;
#X connect 16 0 14 0;
#X connect 16 1 13 0;
#X connect 17 0 7 0;
#X connect 18 0 12 0;
#X connect 18 1 11 0;
#X connect 19 0 6 0;
#X connect 19 1 5 0;
#X connect 19 1 16 0;
#X connect 19 2 4 0;
#X connect 19 3 8 0;
#X connect 19 4 18 0;
#X connect 19 5 1 0;
#X restore 20 30 pd pat0;
#N canvas 551 229 733 551 pat1 0;
#X msg 165 57 store 1 3.5;
#X obj 178 229 s dmach-msgs;
#X msg 373 203 slotamps 1 3 14 0 0 0 0 1 0 0 0 0 0 1 1 1 0;
#X msg 405 290 slotamps 1 7 14 1 1 1 1 1 0 0 0 1 0 1 0 1 0;
#X msg 450 339 slotamps 1 2 7 0 0 0 1 0 0 0;
#X msg 341 153 slotamps 1 6 7 1 0 0 1 0 0.6 0;
#X msg 264 73 slotincrs 1 6 1 0.9 0.6;
#X msg 5 448 slotamps 1 4 14 1 0 0 1 1 1 1 0 1 1 1 1 1 0;
#X msg 6 427 slotincrs 1 4 80 90 300 120 600 70 111 131 210 60;
#X msg 398 249 slotamps 1 8 7 0 1 0.7 0 1 0.7 0;
#X msg 272 92 slotamps 1 1 0 0 0 1 0 1 0 1;
#X obj 148 401 t b b;
#X obj 278 46 t b b;
#X obj 140 22 t b b b b b b b b b;
#X obj 93 27 bng 15 250 50 0 empty empty empty 0 -6 0 8 -262144 -1
-1;
#X obj 53 0 loadbang;
#X msg 424 392 slotamps 1 8 7 1 1 1 0 0 0 0;
#X connect 0 0 1 0;
#X connect 2 0 1 0;
#X connect 3 0 1 0;
#X connect 4 0 1 0;
#X connect 5 0 1 0;
#X connect 6 0 1 0;
#X connect 7 0 1 0;
#X connect 8 0 1 0;
#X connect 9 0 1 0;
#X connect 10 0 1 0;
#X connect 11 0 8 0;
#X connect 11 1 7 0;
#X connect 12 0 6 0;
#X connect 12 1 10 0;
#X connect 13 0 11 0;
#X connect 13 1 16 0;
#X connect 13 2 4 0;
#X connect 13 3 3 0;
#X connect 13 4 9 0;
#X connect 13 5 2 0;
#X connect 13 6 5 0;
#X connect 13 7 12 0;
#X connect 13 8 0 0;
#X connect 14 0 13 0;
#X connect 15 0 14 0;
#X connect 16 0 1 0;
#X restore 20 55 pd pat1;
#N canvas 85 193 1049 665 pat2 0;
#X obj 92 588 s dmach-msgs;
#X obj 15 142 t b b;
#X obj 86 54 bng 15 250 50 0 empty empty empty 17 7 0 10 -262144 -1
-1;
#X obj 339 289 t b b;
#X obj 162 435 t b b;
#X obj 145 55 loadbang;
#X obj 221 372 t b b;
#X text 444 210 snare rush;
#X text 263 194 normal snare;
#X msg 210 111 store 2 4;
#X msg 268 151 slotamps 2 2 16 0 0 1 0.7 0 0 1 0.7 0 0 1 0.7 0 0.5
1 0.7;
#X msg 245 249 slotamps 2 3 4 0 1 0 1;
#X msg 424 225 slotamps 2 3 16 0 0 0 0 1 1 0 1 1 0 0.5 0.7 0.9 1 1
1;
#X msg 339 325 slotincrs 2 1 1 1 0.8333 1.111 1.111 1.333 1.653;
#X msg 341 345 slotamps 2 1 16 1 0 0.7 0 1 0 0 1 0 0 1 0 1 0 0.666
;
#X msg 15 188 slotamps 2 0 8 1 0 0 1 1 0 0 1;
#X msg 14 164 slotincrs 2 0 1 0.8 1 0.8;
#X obj 67 84 t b b b b b b b b;
#X msg 142 521 slotincrs 2 6 1.05 1.05 0.9 1 0.8;
#X msg 177 492 slotamps 2 6 16 1 0 1 0 0 1 0 0 1 0 0 0 1 0 0 0;
#X msg 532 470 slotamps 2 8 16 1 0.9 0.8 0.6 1 0.9 0.8 0.6 1 0.9 0.8
0.6 1 0.9 0.8 0.6;
#X msg 283 455 slotamps 2 4 2 1 1;
#X msg 229 431 slotincrs 2 4 555 597;
#X connect 1 0 16 0;
#X connect 1 1 15 0;
#X connect 2 0 17 0;
#X connect 3 0 13 0;
#X connect 3 1 14 0;
#X connect 4 0 18 0;
#X connect 4 1 19 0;
#X connect 5 0 2 0;
#X connect 6 0 22 0;
#X connect 6 1 21 0;
#X connect 9 0 0 0;
#X connect 10 0 0 0;
#X connect 11 0 0 0;
#X connect 12 0 0 0;
#X connect 13 0 0 0;
#X connect 14 0 0 0;
#X connect 15 0 0 0;
#X connect 16 0 0 0;
#X connect 17 0 1 0;
#X connect 17 1 4 0;
#X connect 17 2 10 0;
#X connect 17 3 3 0;
#X connect 17 4 6 0;
#X connect 17 5 11 0;
#X connect 17 6 20 0;
#X connect 17 7 9 0;
#X connect 18 0 0 0;
#X connect 19 0 0 0;
#X connect 20 0 0 0;
#X connect 21 0 0 0;
#X connect 22 0 0 0;
#X restore 20 80 pd pat2;
#N canvas 368 153 785 643 pat3 0;
#X obj 154 226 s dmach-msgs;
#X msg 177 120 store 3 3;
#X msg 338 153 slotamps 3 0 9 1 0 0.7 1 0 0.7 1 0 0;
#X msg 398 213 slotamps 3 8 9 0 1 0.5 0 1 0.5 0 0.5 1;
#X msg 399 249 slotincrs 3 8 0.7 0.7 0.7 0.7 0.7 0.6;
#X msg 347 323 slotamps 3 7 18 0 0 1 1 1 0 0 0 1 0 1 0 1 0 1 1 1 0
;
#X msg 414 356 slotamps 3 2 3 1 1 1;
#X msg 264 423 slotamps 3 4 9 1 1 1 1 1 1 1 1 1;
#X msg 272 466 slotincrs 3 4 89 111 127 76 140 222 997 560 56;
#X obj 250 60 t b b b b b b;
#X obj 374 189 t b b;
#X obj 304 375 t b b;
#X obj 221 53 bng 15 250 50 0 empty empty empty 17 7 0 10 -262144 -1
-1;
#X obj 124 63 loadbang;
#X connect 1 0 0 0;
#X connect 2 0 0 0;
#X connect 3 0 0 0;
#X connect 4 0 0 0;
#X connect 5 0 0 0;
#X connect 6 0 0 0;
#X connect 7 0 0 0;
#X connect 8 0 0 0;
#X connect 9 0 11 0;
#X connect 9 1 6 0;
#X connect 9 2 5 0;
#X connect 9 3 10 0;
#X connect 9 4 2 0;
#X connect 9 5 1 0;
#X connect 10 0 4 0;
#X connect 10 1 3 0;
#X connect 11 0 8 0;
#X connect 11 1 7 0;
#X connect 12 0 9 0;
#X connect 13 0 12 0;
#X restore 20 105 pd pat3;
#N canvas 383 180 805 663 pat4 0;
#X obj 134 585 s dmach-msgs;
#X msg 177 119 store 4 3.33333;
#X msg 361 513 slotamps 4 4 10 1 1 1 1 1 1 1 1 1 1;
#X msg 338 153 slotamps 4 0 10 1 0 0.7 1 0 0.7 1 0 1 0;
#X msg 385 243 slotamps 4 8 10 0 1 0.5 0 1 0.5 0 0.5 1 1;
#X msg 355 221 slotincrs 4 8 0.7 0.7 0.7 0.7 0.7 0.6 0.55;
#X msg 347 322 slotamps 4 7 20 0 0 1 1 1 0 0 0 1 0 1 0 1 0 1 1 1 0
1 1;
#X msg 420 356 slotamps 4 2 10 1 0 0 1 0 0 1 0 0 1 0 1 0;
#X msg 337 490 slotincrs 4 4 89 111 127 76 140 222 997 560 333 1444
;
#X obj 359 189 t b b;
#X obj 349 459 t b b;
#X obj 184 43 t b b b b b b;
#X text 314 111 A bar with 10 triplets (hard to notate!);
#X obj 135 56 bng 15 250 50 0 empty empty empty 17 7 0 10 -262144 -1
-1;
#X obj 110 25 loadbang;
#X connect 1 0 0 0;
#X connect 2 0 0 0;
#X connect 3 0 0 0;
#X connect 4 0 0 0;
#X connect 5 0 0 0;
#X connect 6 0 0 0;
#X connect 7 0 0 0;
#X connect 8 0 0 0;
#X connect 9 0 5 0;
#X connect 9 1 4 0;
#X connect 10 0 8 0;
#X connect 10 1 2 0;
#X connect 11 0 10 0;
#X connect 11 1 7 0;
#X connect 11 2 6 0;
#X connect 11 3 9 0;
#X connect 11 4 3 0;
#X connect 11 5 1 0;
#X connect 13 0 11 0;
#X connect 14 0 13 0;
#X restore 20 130 pd pat4;
#X text 11 12 pattern assembly;
#X obj 164 184 s dmach-msgs;
#N canvas 328 128 821 601 pat6 0;
#X obj -9 526 s dmach-msgs;
#X msg 571 34 store 6 3.25;
#X msg 37 76 slotamps 6 0 13 1 0 0 0 1 0 0 1 0 0 1 0 0;
#X msg 31 221 slotamps 6 2 13 1 0 0 0 1 0 0 1 0 0 1 0 0;
#X msg 108 30 slotamps 6 6 13 1 0 0 0 0 0 0 0 0 1 0 1 0;
#X msg 35 366 slotamps 6 1 13 1 0 1 0 0 0 1 0 0 0 1 0 0;
#X msg 30 337 slotincrs 6 1 0.5 1.5 2 1;
#X msg 118 493 slotamps 6 4 13 1 0.7 0.7 0.7 1 0.5 0.5 1 0.5 0.5 1
0.5 0.5;
#X msg 143 457 slotincrs 6 4 80 160 320 640 160 320 640 80 160 320
160 320 640;
#X msg 156 140 slotamps 6 3 13 0 0 1 1 0 0 0 1 0 1 0 0 1.5;
#X msg 67 259 slotamps 6 7 13 0 0 1 1 0 1 1 0 1 1 0 1 1.3;
#X msg 149 191 slotamps 6 5 13 0 0 0 0 1 0 0 0 0 0 0 0 1.2;
#X msg 424 264 slotamps 6 8 13 0 0 0 0 1 0 0 0 0 0 0 0 1.2;
#X msg 405 242 slotincrs 6 8 1 1.06;
#X obj 22 -51 loadbang;
#X obj 246 424 t b b;
#X obj 138 304 t b b;
#X obj 414 219 t b b;
#X text 573 9 13/16 bar;
#X obj 24 -12 t b b b b b b b b b b;
#X obj 108 -48 bng 15 250 50 0 empty empty empty 17 7 0 10 -262144
-1 -1;
#X connect 1 0 0 0;
#X connect 2 0 0 0;
#X connect 3 0 0 0;
#X connect 4 0 0 0;
#X connect 5 0 0 0;
#X connect 6 0 0 0;
#X connect 7 0 0 0;
#X connect 8 0 0 0;
#X connect 9 0 0 0;
#X connect 10 0 0 0;
#X connect 11 0 0 0;
#X connect 12 0 0 0;
#X connect 13 0 0 0;
#X connect 14 0 19 0;
#X connect 15 0 8 0;
#X connect 15 1 7 0;
#X connect 16 0 6 0;
#X connect 16 1 5 0;
#X connect 17 0 13 0;
#X connect 17 1 12 0;
#X connect 19 0 15 0;
#X connect 19 1 16 0;
#X connect 19 2 10 0;
#X connect 19 3 3 0;
#X connect 19 4 17 0;
#X connect 19 5 11 0;
#X connect 19 6 9 0;
#X connect 19 7 4 0;
#X connect 19 8 2 0;
#X connect 19 9 1 0;
#X connect 20 0 19 0;
#X restore 20 180 pd pat6;
#X msg 219 134 printraw 5;
#N canvas 657 793 628 384 pat5 0;
#X obj 16 249 s dmach-msgs;
#X obj 16 49 loadbang;
#X msg 16 89 readraw 5 4 1 6 1 0.8333 0 1 1 0.999975 0.7 0.8333 1.49996
1 1.25 2.49998 1 1 2.99997 0.7 1.11 3.49996 2 10 1 1.1 0 0.7 0.8 0.399999
0.7 0.8 0.799999 0.7 0.8 1.2 0.7 0.8 1.6 1 1 2 0.7 0.8 2.4 0.7 0.8
2.8 1 1.2 3.19999 0.7 0.8 3.59999 3 2 1 1 0.999975 1 1 3.49996 4 4
1 80 0 1 100 0.999975 1 110 2 1 120 2.99997 6 4 1 1 0 0.7 1 0.999975
0.7 1 2 0.7 1 2.99997 7 13 1 1 0 0.5 1 0.249994 0.7 1 0.499987 1 1
0.999975 0.5 1 1.24997 0.7 1 1.49996 1 1 2 0.5 1 2.24999 0.7 1 2.49998
0.9 1 2.74998 1 1 2.99997 0.7 1 3.49996 0.7 1 3.75 8 3 1 1 0.999975
1 1 2.49998 0.8 1 3.49996;
#X connect 1 0 2 0;
#X connect 2 0 0 0;
#X restore 20 155 pd pat5;
#X text 192 114 show all attacks for ptn 5;
#X msg 164 85 listraw 5;
#X text 159 58 send ptn 5 to list outlet for possible reuse;
#X connect 8 0 6 0;
#X connect 11 0 6 0;
#X restore 321 380 pd stored-patterns;
#N canvas 252 329 436 361 playback-adjustments 0;
#X obj 291 272 s dmach-msgs;
#X obj 67 201 vsl 10 55 0 127 0 0 empty empty empty 0 -9 0 10 -93493
-1 -1 2700 1;
#X obj 91 201 vsl 10 55 0 127 0 0 empty empty empty 0 -9 0 10 -93493
-1 -1 2700 1;
#X obj 115 201 vsl 10 55 0 127 0 0 empty empty empty 0 -9 0 10 -93493
-1 -1 3500 1;
#X obj 139 201 vsl 10 55 0 127 0 0 empty empty empty 0 -9 0 10 -93493
-1 -1 1700 1;
#X obj 162 201 vsl 10 55 0 127 0 0 empty empty empty 0 -9 0 10 -93493
-1 -1 0 1;
#X obj 43 40 vsl 10 55 0 127 0 0 empty empty empty 0 -9 0 10 -215152
-1 -1 0 1;
#X obj 74 40 vsl 10 55 0 127 0 0 empty empty empty 0 -9 0 10 -215152
-1 -1 0 1;
#X obj 106 40 vsl 10 55 0 127 0 0 empty empty empty 0 -9 0 10 -215152
-1 -1 0 1;
#X obj 137 40 vsl 10 55 0 127 0 0 empty empty empty 0 -9 0 10 -215152
-1 -1 0 1;
#X obj 169 40 vsl 10 55 0 127 0 0 empty empty empty 0 -9 0 10 -215152
-1 -1 0 1;
#X msg 44 173 1;
#X obj 200 40 vsl 10 55 0 127 0 0 empty empty empty 0 -9 0 10 -215152
-1 -1 0 1;
#X obj 186 201 vsl 10 55 0 127 0 0 empty empty empty 0 -9 0 10 -93493
-1 -1 0 1;
#X obj 232 40 vsl 10 55 0 127 0 0 empty empty empty 0 -9 0 10 -215152
-1 -1 0 1;
#X obj 263 40 vsl 10 55 0 127 0 0 empty empty empty 0 -9 0 10 -215152
-1 -1 0 1;
#X obj 295 40 vsl 10 55 0 127 0 0 empty empty empty 0 -9 0 10 -215152
-1 -1 0 1;
#N canvas 19 93 1162 506 adjust-gains__________________________ 0;
#X obj 81 215 outlet;
#X obj 83 71 inlet;
#X floatatom 82 128 5 0 0 0 - - -;
#X msg 82 156 gain 0 \$1;
#X obj 169 67 inlet;
#X floatatom 168 124 5 0 0 0 - - -;
#X obj 258 67 inlet;
#X floatatom 257 124 5 0 0 0 - - -;
#X obj 352 68 inlet;
#X floatatom 351 125 5 0 0 0 - - -;
#X obj 447 71 inlet;
#X floatatom 446 128 5 0 0 0 - - -;
#X msg 168 152 gain 1 \$1;
#X msg 257 152 gain 2 \$1;
#X msg 351 153 gain 3 \$1;
#X msg 446 156 gain 4 \$1;
#X obj 532 72 inlet;
#X floatatom 531 129 5 0 0 0 - - -;
#X msg 532 157 gain 5 \$1;
#X obj 531 103 smap 0 4;
#X obj 626 74 inlet;
#X floatatom 625 131 5 0 0 0 - - -;
#X obj 625 105 smap 0 4;
#X msg 626 159 gain 6 \$1;
#X obj 704 75 inlet;
#X floatatom 703 132 5 0 0 0 - - -;
#X obj 703 106 smap 0 4;
#X msg 704 159 gain 7 \$1;
#X obj 788 77 inlet;
#X floatatom 787 134 5 0 0 0 - - -;
#X obj 787 108 smap 0 4;
#X msg 788 161 gain 8 \$1;
#X obj 888 78 inlet;
#X obj 447 102 smap 0 4;
#X obj 352 99 smap 0 4;
#X obj 258 98 smap 0 4;
#X obj 169 98 smap 0 4;
#X obj 83 102 smap 0 4;
#X connect 1 0 37 0;
#X connect 2 0 3 0;
#X connect 3 0 0 0;
#X connect 4 0 36 0;
#X connect 5 0 12 0;
#X connect 6 0 35 0;
#X connect 7 0 13 0;
#X connect 8 0 34 0;
#X connect 9 0 14 0;
#X connect 10 0 33 0;
#X connect 11 0 15 0;
#X connect 12 0 0 0;
#X connect 13 0 0 0;
#X connect 14 0 0 0;
#X connect 15 0 0 0;
#X connect 16 0 19 0;
#X connect 17 0 18 0;
#X connect 18 0 0 0;
#X connect 19 0 17 0;
#X connect 20 0 22 0;
#X connect 21 0 23 0;
#X connect 22 0 21 0;
#X connect 23 0 0 0;
#X connect 24 0 26 0;
#X connect 25 0 27 0;
#X connect 26 0 25 0;
#X connect 27 0 0 0;
#X connect 28 0 30 0;
#X connect 29 0 31 0;
#X connect 30 0 29 0;
#X connect 31 0 0 0;
#X connect 32 0 29 0;
#X connect 32 0 25 0;
#X connect 32 0 21 0;
#X connect 32 0 17 0;
#X connect 32 0 11 0;
#X connect 32 0 9 0;
#X connect 32 0 7 0;
#X connect 32 0 5 0;
#X connect 32 0 2 0;
#X connect 33 0 11 0;
#X connect 34 0 9 0;
#X connect 35 0 7 0;
#X connect 36 0 5 0;
#X connect 37 0 2 0;
#X restore 43 106 pd adjust-gains__________________________;
#X msg 327 54 1;
#X obj 42 133 s dmach-msgs;
#X obj 44 300 s dmach-msgs;
#N canvas 241 125 1002 464 gates 0;
#X obj 96 342 outlet;
#X obj 136 58 tgl 15 0 empty empty empty 17 7 0 10 -262144 -1 -1 0
1;
#X msg 134 99 muteslot 1 \$1;
#X obj 238 65 tgl 15 0 empty empty empty 17 7 0 10 -262144 -1 -1 0
1;
#X msg 237 99 muteslot 2 \$1;
#X obj 34 56 tgl 15 0 empty empty empty 17 7 0 10 -262144 -1 -1 0 1
;
#X msg 33 97 muteslot 0 \$1;
#X obj 343 64 tgl 15 0 empty empty empty 17 7 0 10 -262144 -1 -1 0
1;
#X obj 447 64 tgl 15 0 empty empty empty 17 7 0 10 -262144 -1 -1 0
1;
#X obj 547 63 tgl 15 0 empty empty empty 17 7 0 10 -262144 -1 -1 0
1;
#X msg 342 98 muteslot 3 \$1;
#X msg 445 98 muteslot 4 \$1;
#X msg 546 97 muteslot 5 \$1;
#X obj 561 176 tgl 15 0 empty empty empty 17 7 0 10 -262144 -1 -1 0
1;
#X obj 665 176 tgl 15 0 empty empty empty 17 7 0 10 -262144 -1 -1 0
1;
#X obj 765 175 tgl 15 0 empty empty empty 17 7 0 10 -262144 -1 -1 0
1;
#X msg 560 209 muteslot 6 \$1;
#X msg 663 210 muteslot 7 \$1;
#X msg 764 209 muteslot 8 \$1;
#X text 247 363 turn slots on or off;
#X connect 1 0 2 0;
#X connect 2 0 0 0;
#X connect 3 0 4 0;
#X connect 4 0 0 0;
#X connect 5 0 6 0;
#X connect 6 0 0 0;
#X connect 7 0 10 0;
#X connect 8 0 11 0;
#X connect 9 0 12 0;
#X connect 10 0 0 0;
#X connect 11 0 0 0;
#X connect 12 0 0 0;
#X connect 13 0 16 0;
#X connect 14 0 17 0;
#X connect 15 0 18 0;
#X connect 16 0 0 0;
#X connect 17 0 0 0;
#X connect 18 0 0 0;
#X restore 291 242 pd gates;
#X obj 210 201 vsl 10 55 0 127 0 0 empty empty empty 0 -9 0 10 -93493
-1 -1 0 1;
#X obj 234 201 vsl 10 55 0 127 0 0 empty empty empty 0 -9 0 10 -93493
-1 -1 0 1;
#X obj 258 201 vsl 10 55 0 127 0 0 empty empty empty 0 -9 0 10 -93493
-1 -1 0 1;
#N canvas 0 156 1248 402 transposers_________________ 0;
#X obj 49 49 inlet;
#N canvas 1157 45 458 308 zmap 0;
#X obj 56 34 inlet;
#X obj 56 60 / 127;
#X msg 139 43 0.5;
#X msg 181 43 1.5;
#X obj 138 78 - 0;
#X obj 140 20 t b b;
#X floatatom 96 111 5 0 0 0 - - -;
#X obj 56 131 *;
#X obj 56 160 +;
#X floatatom 103 142 5 0 0 0 - - -;
#X obj 56 187 outlet;
#X obj 140 -1 loadbang;
#X connect 0 0 1 0;
#X connect 1 0 7 0;
#X connect 2 0 4 1;
#X connect 2 0 9 0;
#X connect 3 0 4 0;
#X connect 4 0 6 0;
#X connect 5 0 2 0;
#X connect 5 1 3 0;
#X connect 6 0 7 1;
#X connect 7 0 8 0;
#X connect 8 0 10 0;
#X connect 9 0 8 1;
#X connect 11 0 5 0;
#X restore 49 80 pd zmap;
#X floatatom 48 106 5 0 0 0 - - -;
#X msg 48 134 transpose 0 \$1;
#X obj 47 180 outlet;
#X obj 168 48 inlet;
#N canvas 1157 45 454 304 zmap 0;
#X obj 56 34 inlet;
#X obj 56 60 / 127;
#X msg 139 43 0.5;
#X msg 181 43 1.5;
#X obj 138 78 - 0;
#X obj 140 20 t b b;
#X floatatom 96 111 5 0 0 0 - - -;
#X obj 56 131 *;
#X obj 56 160 +;
#X floatatom 103 142 5 0 0 0 - - -;
#X obj 56 187 outlet;
#X obj 140 -1 loadbang;
#X connect 0 0 1 0;
#X connect 1 0 7 0;
#X connect 2 0 4 1;
#X connect 2 0 9 0;
#X connect 3 0 4 0;
#X connect 4 0 6 0;
#X connect 5 0 2 0;
#X connect 5 1 3 0;
#X connect 6 0 7 1;
#X connect 7 0 8 0;
#X connect 8 0 10 0;
#X connect 9 0 8 1;
#X connect 11 0 5 0;
#X restore 168 79 pd zmap;
#X floatatom 167 105 5 0 0 0 - - -;
#X obj 284 46 inlet;
#N canvas 1157 45 454 304 zmap 0;
#X obj 56 34 inlet;
#X obj 56 60 / 127;
#X msg 139 43 0.5;
#X msg 181 43 1.5;
#X obj 138 78 - 0;
#X obj 140 20 t b b;
#X floatatom 96 111 5 0 0 0 - - -;
#X obj 56 131 *;
#X obj 56 160 +;
#X floatatom 103 142 5 0 0 0 - - -;
#X obj 56 187 outlet;
#X obj 140 -1 loadbang;
#X connect 0 0 1 0;
#X connect 1 0 7 0;
#X connect 2 0 4 1;
#X connect 2 0 9 0;
#X connect 3 0 4 0;
#X connect 4 0 6 0;
#X connect 5 0 2 0;
#X connect 5 1 3 0;
#X connect 6 0 7 1;
#X connect 7 0 8 0;
#X connect 8 0 10 0;
#X connect 9 0 8 1;
#X connect 11 0 5 0;
#X restore 284 77 pd zmap;
#X floatatom 283 103 5 0 0 0 - - -;
#X obj 394 48 inlet;
#N canvas 1157 45 454 304 zmap 0;
#X obj 56 34 inlet;
#X obj 56 60 / 127;
#X msg 139 43 0.5;
#X msg 181 43 1.5;
#X obj 138 78 - 0;
#X obj 140 20 t b b;
#X floatatom 96 111 5 0 0 0 - - -;
#X obj 56 131 *;
#X obj 56 160 +;
#X floatatom 103 142 5 0 0 0 - - -;
#X obj 56 187 outlet;
#X obj 140 -1 loadbang;
#X connect 0 0 1 0;
#X connect 1 0 7 0;
#X connect 2 0 4 1;
#X connect 2 0 9 0;
#X connect 3 0 4 0;
#X connect 4 0 6 0;
#X connect 5 0 2 0;
#X connect 5 1 3 0;
#X connect 6 0 7 1;
#X connect 7 0 8 0;
#X connect 8 0 10 0;
#X connect 9 0 8 1;
#X connect 11 0 5 0;
#X restore 394 79 pd zmap;
#X floatatom 393 105 5 0 0 0 - - -;
#X obj 509 49 inlet;
#N canvas 1157 45 454 304 zmap 0;
#X obj 56 34 inlet;
#X obj 56 60 / 127;
#X msg 139 43 0.5;
#X msg 181 43 1.5;
#X obj 138 78 - 0;
#X obj 140 20 t b b;
#X floatatom 96 111 5 0 0 0 - - -;
#X obj 56 131 *;
#X obj 56 160 +;
#X floatatom 103 142 5 0 0 0 - - -;
#X obj 56 187 outlet;
#X obj 140 -1 loadbang;
#X connect 0 0 1 0;
#X connect 1 0 7 0;
#X connect 2 0 4 1;
#X connect 2 0 9 0;
#X connect 3 0 4 0;
#X connect 4 0 6 0;
#X connect 5 0 2 0;
#X connect 5 1 3 0;
#X connect 6 0 7 1;
#X connect 7 0 8 0;
#X connect 8 0 10 0;
#X connect 9 0 8 1;
#X connect 11 0 5 0;
#X restore 509 80 pd zmap;
#X floatatom 509 106 5 0 0 0 - - -;
#X msg 167 133 transpose 1 \$1;
#X msg 283 131 transpose 2 \$1;
#X msg 393 133 transpose 3 \$1;
#X msg 509 134 transpose 4 \$1;
#X obj 3 47 inlet;
#X obj 622 48 inlet;
#N canvas 1157 45 454 304 zmap 0;
#X obj 56 34 inlet;
#X obj 56 60 / 127;
#X msg 139 43 0.5;
#X msg 181 43 1.5;
#X obj 138 78 - 0;
#X obj 140 20 t b b;
#X floatatom 96 111 5 0 0 0 - - -;
#X obj 56 131 *;
#X obj 56 160 +;
#X floatatom 103 142 5 0 0 0 - - -;
#X obj 56 187 outlet;
#X obj 140 -1 loadbang;
#X connect 0 0 1 0;
#X connect 1 0 7 0;
#X connect 2 0 4 1;
#X connect 2 0 9 0;
#X connect 3 0 4 0;
#X connect 4 0 6 0;
#X connect 5 0 2 0;
#X connect 5 1 3 0;
#X connect 6 0 7 1;
#X connect 7 0 8 0;
#X connect 8 0 10 0;
#X connect 9 0 8 1;
#X connect 11 0 5 0;
#X restore 622 79 pd zmap;
#X floatatom 622 105 5 0 0 0 - - -;
#X msg 622 134 transpose 5 \$1;
#X obj 732 48 inlet;
#N canvas 1157 45 454 304 zmap 0;
#X obj 56 34 inlet;
#X obj 56 60 / 127;
#X msg 139 43 0.5;
#X msg 181 43 1.5;
#X obj 138 78 - 0;
#X obj 140 20 t b b;
#X floatatom 96 111 5 0 0 0 - - -;
#X obj 56 131 *;
#X obj 56 160 +;
#X floatatom 103 142 5 0 0 0 - - -;
#X obj 56 187 outlet;
#X obj 140 -1 loadbang;
#X connect 0 0 1 0;
#X connect 1 0 7 0;
#X connect 2 0 4 1;
#X connect 2 0 9 0;
#X connect 3 0 4 0;
#X connect 4 0 6 0;
#X connect 5 0 2 0;
#X connect 5 1 3 0;
#X connect 6 0 7 1;
#X connect 7 0 8 0;
#X connect 8 0 10 0;
#X connect 9 0 8 1;
#X connect 11 0 5 0;
#X restore 732 79 pd zmap;
#X floatatom 732 105 5 0 0 0 - - -;
#X obj 846 54 inlet;
#N canvas 1157 45 454 304 zmap 0;
#X obj 56 34 inlet;
#X obj 56 60 / 127;
#X msg 139 43 0.5;
#X msg 181 43 1.5;
#X obj 138 78 - 0;
#X obj 140 20 t b b;
#X floatatom 96 111 5 0 0 0 - - -;
#X obj 56 131 *;
#X obj 56 160 +;
#X floatatom 103 142 5 0 0 0 - - -;
#X obj 56 187 outlet;
#X obj 140 -1 loadbang;
#X connect 0 0 1 0;
#X connect 1 0 7 0;
#X connect 2 0 4 1;
#X connect 2 0 9 0;
#X connect 3 0 4 0;
#X connect 4 0 6 0;
#X connect 5 0 2 0;
#X connect 5 1 3 0;
#X connect 6 0 7 1;
#X connect 7 0 8 0;
#X connect 8 0 10 0;
#X connect 9 0 8 1;
#X connect 11 0 5 0;
#X restore 846 85 pd zmap;
#X floatatom 846 111 5 0 0 0 - - -;
#X obj 967 52 inlet;
#N canvas 1157 45 454 304 zmap 0;
#X obj 56 34 inlet;
#X obj 56 60 / 127;
#X msg 139 43 0.5;
#X msg 181 43 1.5;
#X obj 138 78 - 0;
#X obj 140 20 t b b;
#X floatatom 96 111 5 0 0 0 - - -;
#X obj 56 131 *;
#X obj 56 160 +;
#X floatatom 103 142 5 0 0 0 - - -;
#X obj 56 187 outlet;
#X obj 140 -1 loadbang;
#X connect 0 0 1 0;
#X connect 1 0 7 0;
#X connect 2 0 4 1;
#X connect 2 0 9 0;
#X connect 3 0 4 0;
#X connect 4 0 6 0;
#X connect 5 0 2 0;
#X connect 5 1 3 0;
#X connect 6 0 7 1;
#X connect 7 0 8 0;
#X connect 8 0 10 0;
#X connect 9 0 8 1;
#X connect 11 0 5 0;
#X restore 967 83 pd zmap;
#X floatatom 967 109 5 0 0 0 - - -;
#X msg 732 134 transpose 6 \$1;
#X msg 846 140 transpose 7 \$1;
#X msg 967 138 transpose 8 \$1;
#X connect 0 0 1 0;
#X connect 1 0 2 0;
#X connect 2 0 3 0;
#X connect 3 0 4 0;
#X connect 5 0 6 0;
#X connect 6 0 7 0;
#X connect 7 0 17 0;
#X connect 8 0 9 0;
#X connect 9 0 10 0;
#X connect 10 0 18 0;
#X connect 11 0 12 0;
#X connect 12 0 13 0;
#X connect 13 0 19 0;
#X connect 14 0 15 0;
#X connect 15 0 16 0;
#X connect 16 0 20 0;
#X connect 17 0 4 0;
#X connect 18 0 4 0;
#X connect 19 0 4 0;
#X connect 20 0 4 0;
#X connect 21 0 2 0;
#X connect 21 0 7 0;
#X connect 21 0 10 0;
#X connect 21 0 13 0;
#X connect 21 0 16 0;
#X connect 21 0 24 0;
#X connect 22 0 23 0;
#X connect 23 0 24 0;
#X connect 24 0 25 0;
#X connect 25 0 4 0;
#X connect 26 0 27 0;
#X connect 27 0 28 0;
#X connect 28 0 35 0;
#X connect 29 0 30 0;
#X connect 30 0 31 0;
#X connect 31 0 36 0;
#X connect 32 0 33 0;
#X connect 33 0 34 0;
#X connect 34 0 37 0;
#X connect 35 0 4 0;
#X connect 36 0 4 0;
#X connect 37 0 4 0;
#X restore 44 272 pd transposers_________________;
#X connect 1 0 25 1;
#X connect 2 0 25 2;
#X connect 3 0 25 3;
#X connect 4 0 25 4;
#X connect 5 0 25 5;
#X connect 6 0 17 0;
#X connect 7 0 17 1;
#X connect 8 0 17 2;
#X connect 9 0 17 3;
#X connect 10 0 17 4;
#X connect 11 0 25 0;
#X connect 12 0 17 5;
#X connect 13 0 25 6;
#X connect 14 0 17 6;
#X connect 15 0 17 7;
#X connect 16 0 17 8;
#X connect 17 0 19 0;
#X connect 18 0 17 9;
#X connect 21 0 0 0;
#X connect 22 0 25 7;
#X connect 23 0 25 8;
#X connect 24 0 25 9;
#X connect 25 0 20 0;
#X restore 321 434 pd playback-adjustments;
#X text 312 187 args: tempo \, voices;
#X obj 52 186 lyonpotpourri/dmach~ 134 9, f 35;
#N canvas 0 23 1005 631 read-the-paper 0;
#X msg 30 112 browse http://disis.music.vt.edu/eric/LyonPapers/SampleAccurate-Lyon-ICMC2006.pdf
, f 81;
#X obj 30 138 pdcontrol;
#X obj 44 56 inlet;
#X connect 0 0 1 0;
#X connect 2 0 0 0;
#X restore 322 547 pd read-the-paper;
#X obj 322 522 bng 15 250 50 0 empty empty empty 17 7 0 10 -262144
-1 -1;
#X obj 52 380 lpp-meters;
#N canvas 16 184 1268 473 playback____________________ 0;
#X obj 9 52 inlet~;
#X obj 75 52 inlet~;
#X obj 143 52 inlet~;
#X obj 209 52 inlet~;
#X obj 273 52 inlet~;
#X obj 339 52 inlet~;
#X obj 404 52 inlet~;
#X obj 470 52 inlet~;
#X obj 537 52 inlet~;
#X obj 603 52 inlet~;
#X obj 117 381 outlet~;
#N canvas 509 23 498 587 bass-synth 0;
#X obj 396 334 adsr~;
#X obj 304 369 *~;
#X obj 127 544 outlet~;
#X obj 117 18 inlet~;
#X obj 183 20 inlet~;
#X obj 128 513 *~ 0;
#X floatatom 347 387 5 0 0 0 - - -;
#X obj 285 198 +~ 1400;
#X obj 285 177 *~ 1000;
#X obj 284 156 osc~ 0.25;
#X obj 278 422 vcf~ 4;
#X obj 349 422 r bassgain;
#X floatatom 350 445 5 0 0 0 - - -;
#X obj 247 334 distortion~ 0.1 0.2;
#X floatatom 311 285 5 0 0 0 - - -;
#X floatatom 375 285 5 0 0 0 - - -;
#X obj 52 131 oscil~ 440 8192 square 4;
#X obj 237 131 oscil~ 440 8192 buzz 16;
#X obj 358 49 osc~ 5;
#X obj 346 80 *~ 0.005;
#X obj 305 95 +~;
#X obj 285 61 sig~ 1;
#X obj 56 76 *~;
#N canvas 0 22 462 312 init 0;
#X obj 97 195 outlet;
#X obj 106 221 outlet;
#X obj 158 231 outlet;
#X obj 137 137 unpack f f;
#X obj 149 29 loadbang;
#X msg 83 147 4;
#X msg 149 109 0.025 0.05;
#X msg 205 194 10 30 600 100;
#X obj 209 235 outlet;
#X connect 3 0 1 0;
#X connect 3 1 2 0;
#X connect 4 0 6 0;
#X connect 4 0 5 0;
#X connect 4 0 7 0;
#X connect 5 0 0 0;
#X connect 6 0 3 0;
#X connect 7 0 8 0;
#X restore 352 247 pd init;
#X obj 230 60 *~ 0.5;
#X obj 118 462 distortion~;
#X floatatom 90 378 5 0 0 0 - - -;
#X floatatom 154 378 5 0 0 0 - - -;
#N canvas 0 22 466 316 init 0;
#X obj 106 221 outlet;
#X obj 158 231 outlet;
#X obj 137 137 unpack f f;
#X obj 149 29 loadbang;
#X msg 149 109 0.1 0.3;
#X connect 2 0 0 0;
#X connect 2 1 1 0;
#X connect 3 0 4 0;
#X connect 4 0 2 0;
#X restore 131 340 pd init;
#X obj 121 483 lop~ 3000;
#X floatatom 227 474 5 0 0 0 - - -;
#X obj 24 448 osc~;
#X obj 94 313 *~ 0.5;
#X msg 150 293 0.666;
#X obj 27 482 *~ 0.2;
#X msg 103 262 0.5;
#X msg 144 261 0.25;
#X obj 316 499 loadbang;
#X msg 316 520 1;
#X obj 315 544 s s_bassgain;
#X connect 0 0 1 1;
#X connect 1 0 10 0;
#X connect 3 0 0 0;
#X connect 4 0 22 0;
#X connect 4 0 24 0;
#X connect 5 0 2 0;
#X connect 6 0 10 2;
#X connect 7 0 10 1;
#X connect 8 0 7 0;
#X connect 9 0 8 0;
#X connect 10 0 25 0;
#X connect 11 0 12 0;
#X connect 12 0 5 1;
#X connect 13 0 1 0;
#X connect 14 0 13 1;
#X connect 15 0 13 2;
#X connect 16 0 13 0;
#X connect 17 0 13 0;
#X connect 18 0 19 0;
#X connect 19 0 20 1;
#X connect 20 0 22 1;
#X connect 21 0 20 0;
#X connect 22 0 16 0;
#X connect 22 0 32 0;
#X connect 23 0 6 0;
#X connect 23 1 14 0;
#X connect 23 2 15 0;
#X connect 23 3 0 0;
#X connect 24 0 17 0;
#X connect 25 0 29 0;
#X connect 26 0 25 1;
#X connect 27 0 25 2;
#X connect 28 0 26 0;
#X connect 28 1 27 0;
#X connect 29 0 5 0;
#X connect 30 0 29 1;
#X connect 31 0 34 0;
#X connect 32 0 31 0;
#X connect 33 0 32 1;
#X connect 34 0 5 0;
#X connect 35 0 32 1;
#X connect 36 0 32 1;
#X connect 37 0 38 0;
#X connect 38 0 39 0;
#X restore 238 224 pd bass-synth;
#N canvas 215 196 532 615 load-waveforms 0;
#N canvas 0 22 450 300 (subpatch) 0;
#X array dmach1 21988 float 2;
#X coords 0 1 21988 -1 30 20 1;
#X restore 100 20 graph;
#N canvas 0 22 450 300 (subpatch) 0;
#X array dmach2 25652 float 2;
#X coords 0 1 25652 -1 30 20 1;
#X restore 100 60 graph;
#N canvas 0 22 450 300 (subpatch) 0;
#X array dmach3 11171 float 2;
#X coords 0 1 11171 -1 30 20 1;
#X restore 181 20 graph;
#N canvas 0 22 450 300 (subpatch) 0;
#X array dmach4 9284 float 2;
#X coords 0 1 9284 -1 30 20 1;
#X restore 181 60 graph;
#X obj 18 408 soundfiler;
#X obj 14 77 loadbang;
#N canvas 0 22 450 300 (subpatch) 0;
#X array dmach5 42964 float 2;
#X coords 0 1 42964 -1 30 20 1;
#X restore 252 22 graph;
#X obj 14 103 t b b b b b b b b;
#N canvas 0 22 450 300 (subpatch) 0;
#X array dmach6 44614 float 2;
#X coords 0 1 44614 -1 30 20 1;
#X restore 253 61 graph;
#N canvas 0 22 450 300 (subpatch) 0;
#X array dmach7 9097 float 2;
#X coords 0 1 9097 -1 30 20 1;
#X restore 317 23 graph;
#N canvas 0 22 450 300 (subpatch) 0;
#X array dmach8 10741 float 2;
#X coords 0 1 10741 -1 30 20 1;
#X restore 319 59 graph;
#X obj 32 50 bng 15 250 50 0 empty empty empty 0 -6 0 8 -262144 -1
-1;
#X msg 165 137 read -resize sound/BT0AADA.aiff dmach1;
#X msg 196 156 read -resize sound/trickhit.aif dmach2;
#X msg 229 176 read -resize sound/hi_o_15g.aiff dmach3;
#X msg 240 202 read -resize sound/KR55SNAR.aiff dmach4;
#X msg 255 240 read -resize sound/soda-bd.aif dmach5;
#X msg 267 282 read -resize sound/BD0010.aif dmach6;
#X msg 257 338 read -resize sound/hi_c_12b.aiff dmach7;
#X msg 262 358 read -resize sound/CP.aif dmach8;
#X connect 5 0 7 0;
#X connect 7 0 12 0;
#X connect 7 1 13 0;
#X connect 7 2 14 0;
#X connect 7 3 15 0;
#X connect 7 4 16 0;
#X connect 7 5 17 0;
#X connect 7 6 18 0;
#X connect 7 7 19 0;
#X connect 11 0 7 0;
#X connect 12 0 4 0;
#X connect 13 0 4 0;
#X connect 14 0 4 0;
#X connect 15 0 4 0;
#X connect 16 0 4 0;
#X connect 17 0 4 0;
#X connect 18 0 4 0;
#X connect 19 0 4 0;
#X restore 940 21 pd load-waveforms;
#X msg 113 18 static_increment 1;
#X obj 113 -2 loadbang;
#X obj 694 51 inlet~;
#X obj 760 51 inlet~;
#X obj 826 51 inlet~;
#X obj 892 51 inlet~;
#X obj 959 50 inlet~;
#X obj 1025 50 inlet~;
#X obj 1085 49 inlet~;
#X obj 1151 49 inlet~;
#X obj 1051 312 snapshot~;
#X obj 1090 278 metro 150;
#X msg 1090 252 1;
#X floatatom 1051 344 5 0 0 0 - - -;
#N canvas 172 230 208 286 assignments 0;
#X text 41 123 4 bassline;
#X text 41 25 0 bassdrum;
#X text 41 48 1 trick hit;
#X text 41 73 2 open hihat;
#X text 41 98 3 snare drum;
#X text 41 148 5 soda bd;
#X text 41 173 6 808 bd;
#X text 41 198 7 closed hihat;
#X text 41 223 8 claps;
#X restore 471 407 pd assignments;
#X f 26;
#X obj 700 344 lyonpotpourri/player~ dmach8;
#X obj 551 302 lyonpotpourri/player~ dmach7;
#X obj 461 272 lyonpotpourri/player~ dmach6;
#X obj 363 240 lyonpotpourri/player~ dmach5;
#X obj 81 195 lyonpotpourri/player~ dmach4;
#X obj 56 168 lyonpotpourri/player~ dmach3;
#X obj 43 144 lyonpotpourri/player~ dmach2;
#X obj 10 122 lyonpotpourri/player~ dmach1;
#X connect 0 0 35 0;
#X connect 1 0 35 1;
#X connect 2 0 34 0;
#X connect 3 0 34 1;
#X connect 4 0 33 0;
#X connect 5 0 33 1;
#X connect 6 0 32 0;
#X connect 7 0 32 1;
#X connect 8 0 11 0;
#X connect 9 0 11 1;
#X connect 11 0 10 0;
#X connect 13 0 28 0;
#X connect 13 0 29 0;
#X connect 13 0 30 0;
#X connect 13 0 31 0;
#X connect 13 0 32 0;
#X connect 13 0 33 0;
#X connect 13 0 34 0;
#X connect 13 0 35 0;
#X connect 14 0 13 0;
#X connect 15 0 31 0;
#X connect 16 0 31 1;
#X connect 17 0 30 0;
#X connect 18 0 30 1;
#X connect 19 0 29 0;
#X connect 20 0 29 1;
#X connect 21 0 28 0;
#X connect 22 0 23 0;
#X connect 22 0 28 1;
#X connect 23 0 26 0;
#X connect 24 0 23 0;
#X connect 25 0 24 0;
#X connect 28 0 10 0;
#X connect 29 0 10 0;
#X connect 30 0 10 0;
#X connect 31 0 10 0;
#X connect 32 0 10 0;
#X connect 33 0 10 0;
#X connect 34 0 10 0;
#X connect 35 0 10 0;
#X restore 52 319 pd playback____________________;
#X obj 47 24 lpp-icon dmach~;
#X text 245 58 - freeform drum pattern programming;
#X text 48 121 [dmach~] coordinates click triggers and increment signals
for pattern-based sequencing., f 91;
#X text 412 352 <= look here first;
#X text 341 520 <= read the paper for more information;
#X connect 0 0 1 0;
#X connect 2 0 14 0;
#X connect 7 0 4 0;
#X connect 14 0 18 0;
#X connect 14 1 18 1;
#X connect 14 2 18 2;
#X connect 14 3 18 3;
#X connect 14 4 18 4;
#X connect 14 5 18 5;
#X connect 14 6 18 6;
#X connect 14 7 18 7;
#X connect 14 8 18 8;
#X connect 14 9 18 9;
#X connect 14 10 18 10;
#X connect 14 11 18 11;
#X connect 14 12 18 12;
#X connect 14 13 18 13;
#X connect 14 14 18 14;
#X connect 14 15 18 15;
#X connect 14 16 18 16;
#X connect 14 17 18 17;
#X connect 14 18 0 0;
#X connect 14 19 5 0;
#X connect 16 0 15 0;
#X connect 18 0 17 0;
#X connect 18 0 17 1;
