#N canvas 618 59 492 674 12;
#X obj 48 218 phasor~ 350;
#X obj 146 180 tgl 15 0 empty \$0-protect empty 0 -6 0 8 -262144 -1
-1 1 1;
#X floatatom 183 248 5 -0.5 0.5 2 feedback feedback -;
#X floatatom 221 287 5 0 0 2 speed1 speed1 -;
#X floatatom 259 319 5 0 0 2 speed2 speed2 -;
#X floatatom 297 349 5 0 1 2 depth depth -;
#X msg 146 207 protect \$1;
#X obj 312 425 hsl 128 15 -0.5 0.5 0 0 feedback feedback-in feedback
-2 -6 0 8 -167887 -1 -1 889 1;
#X obj 312 454 hsl 128 15 0 4 0 0 speed1 speed1-in speed1 -2 -6 0 8
-167887 -1 -1 1048 1;
#X obj 312 483 hsl 128 15 0 4 0 0 speed2 speed2-in speed2 -2 -6 0 8
-167887 -1 -1 794 1;
#X obj 312 511 hsl 128 15 0 1 0 0 depth depth-in depth -2 -6 0 8 -167887
-1 -1 190 1;
#X text 167 177 protect from dangerous feedback;
#X floatatom 48 196 5 0 0 0 - - -;
#X obj 146 373 lyonpotpourri/flanjah~;
#X obj 48 243 -~ 0.5;
#X obj 146 417 lpp-meters;
#X obj 41 14 lpp-icon flanjah~;
#X text 266 42 - A simple flanger;
#X text 43 113 flanger with two recirculating delays;
#N canvas 339 464 462 269 init 0;
#X msg 172 66 0.33;
#X msg 187 87 0.25;
#X obj 207 22 loadbang;
#X obj 37 62 s feedback-in;
#X obj 37 82 s speed1-in;
#X obj 37 102 s speed2-in;
#X obj 37 122 s depth-in;
#X msg 207 108 0.015;
#X msg 163 46 -0.43;
#X obj 272 77 symbol \$0-protect;
#X msg 272 109 \; \$1 1;
#X connect 0 0 4 0;
#X connect 1 0 5 0;
#X connect 2 0 8 0;
#X connect 2 0 0 0;
#X connect 2 0 1 0;
#X connect 2 0 7 0;
#X connect 2 0 9 0;
#X connect 7 0 6 0;
#X connect 8 0 3 0;
#X connect 9 0 10 0;
#X restore 299 585 pd init;
#X connect 0 0 14 0;
#X connect 1 0 6 0;
#X connect 2 0 13 1;
#X connect 3 0 13 2;
#X connect 4 0 13 3;
#X connect 5 0 13 4;
#X connect 6 0 13 0;
#X connect 12 0 0 0;
#X connect 13 0 15 0;
#X connect 13 0 15 1;
#X connect 14 0 13 0;
