#N canvas 600 60 637 711 12;
#X text 302 301 args: ksampling rate \, storage time (in ms.);
#N canvas 600 60 466 316 more-messages 0;
#X msg 238 89 size 4000;
#X obj 173 154 outlet;
#X msg 275 124 info;
#X msg 137 91 ksrate 1024;
#X text 134 55 reset size or krate;
#X connect 0 0 1 0;
#X connect 2 0 1 0;
#X connect 3 0 1 0;
#X restore 332 264 pd more-messages;
#X msg 73 259 record;
#X msg 128 260 play;
#X msg 173 261 stop;
#X msg 216 261 speed \$1;
#X msg 291 261 loop;
#X obj 74 367 phasor~;
#X floatatom 288 356 5 0 0 0 - - -;
#X floatatom 56 230 5 0 0 2 kb-input kb-input -;
#X obj 205 447 hsl 128 15 300 1000 0 0 kb-input empty empty -2 -6 0
8 -261119 -1 -1 12700 1;
#X floatatom 216 219 5 0 0 0 - - -;
#X msg 216 196 1;
#X obj 216 175 loadbang;
#X text 262 214 try different playback speed \, negative OK;
#X text 203 419 hit record \; then perform some wiggles here:;
#X text 256 239 after done recording \, hit loop or play;
#N canvas 0 22 222 238 monitor-phase 0;
#X obj 101 116 metro 100;
#X obj 101 97 tgl 15 0 empty empty empty 0 -6 0 8 -262144 -1 -1 1 1
;
#X obj 101 144 snapshot~;
#X obj 101 42 loadbang;
#X msg 101 67 1;
#X obj 101 179 outlet;
#X obj 15 48 inlet~;
#X connect 0 0 2 0;
#X connect 1 0 0 0;
#X connect 2 0 5 0;
#X connect 3 0 4 0;
#X connect 4 0 1 0;
#X connect 6 0 2 0;
#X restore 288 332 pd monitor-phase;
#X text 51 139 kbuffer~ lets you sample gestures with a lower sampling
rate than the audio rate., f 68;
#X obj 74 484 lpp-meters;
#X obj 74 402 lyonpotpourri/killdc~;
#X obj 74 304 lyonpotpourri/kbuffer~ 512 8000;
#X obj 41 37 lpp-icon kbuffer~;
#X text 244 72 - control-rate sampling of gestural input;
#X connect 1 0 21 0;
#X connect 2 0 21 0;
#X connect 3 0 21 0;
#X connect 4 0 21 0;
#X connect 5 0 21 0;
#X connect 6 0 21 0;
#X connect 7 0 20 0;
#X connect 9 0 21 0;
#X connect 11 0 5 0;
#X connect 12 0 11 0;
#X connect 13 0 12 0;
#X connect 17 0 8 0;
#X connect 20 0 19 0;
#X connect 20 0 19 1;
#X connect 21 0 7 0;
#X connect 21 1 17 0;
