#N canvas 600 60 565 486 12;
#X obj 45 256 killdc~;
#X obj 45 204 +~ 0.5;
#X obj 45 174 *~ 0.5;
#N canvas 0 22 450 300 (subpatch) 0;
#X array sine+dc 441 float 2;
#X coords 0 1 441 -1 200 140 1;
#X restore 306 103 graph;
#X obj 24 336 tabwrite~ sine+dc;
#X msg 99 278 bang;
#N canvas 0 22 450 300 (subpatch) 0;
#X array dc-gone 441 float 2;
#X coords 0 1 441 -1 200 140 1;
#X restore 305 257 graph;
#X obj 151 336 tabwrite~ dc-gone;
#X obj 45 144 osc~ 100;
#X text 136 278 <- see DC cut in action;
#X obj 25 375 tgl 15 0 empty empty empty 17 7 0 10 -262144 -1 -1 1
1;
#X text 45 380 DACs need to be on;
#X obj 22 12 lpp-icon killdc~;
#X text 233 51 - DC blocker;
#X text 24 116 [killdc~] removes DC from input signal;
#X msg 25 398 \; pd dsp \$1;
#X connect 0 0 7 0;
#X connect 1 0 0 0;
#X connect 1 0 4 0;
#X connect 2 0 1 0;
#X connect 5 0 4 0;
#X connect 5 0 7 0;
#X connect 8 0 2 0;
#X connect 10 0 15 0;
