#N canvas 600 60 758 590 12;
#X obj 54 329 *~;
#X obj 54 271 osc~ 500;
#X obj 301 201 osc~ 0.1;
#X obj 301 224 *~ 400;
#X obj 301 252 +~ 450;
#X text 320 277 arg: latch duration in ms.;
#X obj 54 372 lpp-meters;
#X obj 31 6 lpp-icon latch~;
#X text 32 100 [latch~] is a sample-accurate latch generator. An incoming
click is held for a given amount of time.;
#X text 257 32 - sample-accurate latch generator;
#X obj 136 277 lyonpotpourri/latch~ 250;
#X obj 136 176 lyonpotpourri/samm~ 60 1;
#X text 360 246 <= uses [osc~] to gradually change duration of latch
;
#X connect 0 0 6 0;
#X connect 0 0 6 1;
#X connect 1 0 0 0;
#X connect 2 0 3 0;
#X connect 3 0 4 0;
#X connect 4 0 10 1;
#X connect 10 0 0 1;
#X connect 11 0 10 0;
