#N canvas 600 60 723 729 12;
#X obj 124 275 vu 15 120 empty empty -1 -8 0 10 -66577 -1 1 0;
#X obj 123 219 - 96;
#X obj 123 157 env~ 8192 4096;
#X obj 180 275 vu 15 120 empty empty -1 -8 0 10 -66577 -1 1 0;
#X obj 202 219 - 96;
#X obj 262 157 env~ 8192 4096;
#X obj 123 91 inlet~;
#X obj 262 91 inlet~;
#X obj 104 407 hsl 134 15 0 1 0 0 empty empty Gain 50 9 0 14 -228856
-1 -1 0 1;
#X obj 321 232 *~;
#X obj 460 236 *~;
#X obj 120 472 change;
#X obj 321 277 dac~;
#X obj 123 249 tgl 15 0 empty \$0-dspstatus DSP 23 7 0 10 -262144 -1
-1 0 1;
#X msg 24 241 \; pd dsp \$1;
#X obj 120 448 != 0;
#X msg 253 374 color #DCDCDC #000000 #000000;
#X obj 120 494 s \$0-dspstatus;
#X obj 44 464 line~;
#X msg 44 441 \$1 10;
#X obj 44 488 *~;
#X obj 44 512 *~;
#X obj 44 544 throw~ \$0-gainval;
#X obj 494 170 catch~ \$0-gainval;
#X connect 1 0 0 0;
#X connect 2 0 1 0;
#X connect 4 0 3 0;
#X connect 5 0 4 0;
#X connect 6 0 9 0;
#X connect 7 0 10 0;
#X connect 8 0 15 0;
#X connect 8 0 19 0;
#X connect 9 0 12 0;
#X connect 9 0 2 0;
#X connect 10 0 12 1;
#X connect 10 0 5 0;
#X connect 11 0 17 0;
#X connect 13 0 14 0;
#X connect 15 0 11 0;
#X connect 18 0 20 0;
#X connect 18 0 20 1;
#X connect 19 0 18 0;
#X connect 20 0 21 1;
#X connect 20 0 21 0;
#X connect 21 0 22 0;
#X connect 23 0 10 1;
#X connect 23 0 9 1;
#X coords 0 -1 1 1 140 182 2 100 240;
