#N canvas 511 74 783 622 12;
#X obj 207 247 osc~ 440;
#X msg 108 319 channel \$1;
#X floatatom 108 294 5 0 0 0 - #0-channel -;
#X obj 207 468 snapshot~;
#X obj 256 442 metro 100;
#X obj 256 421 tgl 15 0 empty \$0-metrotog empty 17 7 0 10 -262144
-1 -1 1 1;
#X floatatom 128 541 5 0 0 0 - - -;
#X obj 403 468 snapshot~;
#X floatatom 403 541 8 0 0 0 - - -;
#X floatatom 176 209 5 0 0 0 - #0-frequency -;
#X msg 308 247 fftinfo;
#X obj 32 14 lpp-icon magfreq_analysis~;
#X text 465 540 <= estimated frequency for selected bin;
#X text 173 540 <= amplitude for selected bin;
#X text 21 292 select bin to inspect, f 10;
#X text 255 42 - estimate of instantaneous amplitude/frequency spectrum
;
#X text 465 280 args: overlap factor \, window factor;
#X text 34 109 Analyze input as amplitude/frequency spectra. Optional
arguments are overlap factor and window factor \, which must both be
a factor of 2, f 71;
#X text 367 249 <= show analysis constants;
#X text 216 207 <= try different frequencies \, then see what bins
they show up in, f 86;
#N canvas 600 60 609 371 init 0;
#X obj 39 117 symbol \$0-frequency;
#X obj 187 117 symbol \$0-metrotog;
#X obj 39 45 bng 15 250 50 0 empty empty empty 17 7 0 10 -262144 -1
-1;
#X obj 332 117 symbol \$0-channel;
#X obj 39 70 t b b b;
#X msg 39 233 \; \$1 440 \; \$2 1 \; \$3 5;
#X obj 39 189 pack s s s;
#X obj 39 9 loadbang;
#X connect 0 0 6 0;
#X connect 1 0 6 1;
#X connect 2 0 4 0;
#X connect 3 0 6 2;
#X connect 4 0 0 0;
#X connect 4 1 1 0;
#X connect 4 2 3 0;
#X connect 6 0 5 0;
#X connect 7 0 2 0;
#X restore 547 500 pd init;
#X obj 207 281 lyonpotpourri/magfreq_analysis~ 8 2;
#X obj 403 372 lyonpotpourri/channel~;
#X obj 207 372 lyonpotpourri/channel~;
#X msg 547 464 \; pd dsp \$1;
#X obj 547 438 tgl 15 0 empty empty empty 17 7 0 10 -262144 -1 -1 0
1;
#X text 570 440 turn on DACs;
#X connect 0 0 21 0;
#X connect 1 0 22 0;
#X connect 1 0 23 0;
#X connect 2 0 1 0;
#X connect 3 0 6 0;
#X connect 4 0 3 0;
#X connect 4 0 7 0;
#X connect 5 0 4 0;
#X connect 7 0 8 0;
#X connect 9 0 0 0;
#X connect 10 0 21 0;
#X connect 21 0 23 0;
#X connect 21 1 22 0;
#X connect 22 0 7 0;
#X connect 23 0 3 0;
#X connect 25 0 24 0;
