#N canvas 600 60 617 549 12;
#X obj 159 265 phasor~;
#X obj 159 295 lop~ 3000;
#N canvas 447 119 831 684 bach 0;
#X obj 153 44 inlet;
#X obj 135 415 outlet;
#X obj 153 73 t b b;
#X msg 183 107 set_length 9;
#X obj 15 107 t b b b b b b b b b b;
#X msg 15 360 values 261.626 293.665 329.628 391.995 440 523.251 587.33
659.255 698.456;
#X text 11 340 the notes in first 2 bars of JS Bach WTC 1 no. 1 prelude
;
#X msg 280 152 event_odds 0 0 1 1 0 0 0 0 0 0;
#X msg 280 172 event_odds 1 0 0 0 0 1 0 0 0 0;
#X msg 280 192 event_odds 2 0 0 0 1 0 0 0 0 0;
#X msg 280 212 event_odds 3 0 0 0 0 0 1 0 0 0;
#X msg 280 232 event_odds 4 0 0 0 0 0 0 1 0 0;
#X msg 280 254 event_odds 5 0 0 0 0 0 0 0 1 0;
#X msg 280 276 event_odds 6 0 0 0 0 0 0 0 0 1;
#X msg 281 297 event_odds 7 1 0 0 1 0 0 0 0 0;
#X msg 281 317 event_odds 8 1 0 0 0 1 0 0 0 0;
#X text 189 398 If you do not know about transition matrices please
see Xenakis's Formalized Music or whatever Web info you can find on
first order Markov chains.;
#X connect 0 0 2 0;
#X connect 2 0 4 0;
#X connect 2 1 3 0;
#X connect 3 0 1 0;
#X connect 4 0 5 0;
#X connect 4 1 15 0;
#X connect 4 2 14 0;
#X connect 4 3 13 0;
#X connect 4 4 12 0;
#X connect 4 5 11 0;
#X connect 4 6 10 0;
#X connect 4 7 9 0;
#X connect 4 8 8 0;
#X connect 4 9 7 0;
#X connect 5 0 1 0;
#X connect 7 0 1 0;
#X connect 8 0 1 0;
#X connect 9 0 1 0;
#X connect 10 0 1 0;
#X connect 11 0 1 0;
#X connect 12 0 1 0;
#X connect 13 0 1 0;
#X connect 14 0 1 0;
#X connect 15 0 1 0;
#X restore 159 187 pd bach;
#X obj 159 162 loadbang;
#N canvas 0 23 458 308 tempo-control 0;
#X obj 138 45 loadbang;
#X msg 138 69 120 4;
#X obj 138 101 unpack f f;
#X floatatom 138 127 5 0 0 0 - - -;
#X floatatom 205 130 5 0 0 0 - - -;
#X msg 138 157 tempo \$1;
#X msg 205 157 subdiv \$1;
#X obj 138 207 outlet;
#X connect 0 0 1 0;
#X connect 1 0 2 0;
#X connect 2 0 3 0;
#X connect 2 1 4 0;
#X connect 3 0 5 0;
#X connect 4 0 6 0;
#X connect 5 0 7 0;
#X connect 6 0 7 0;
#X restore 27 132 pd tempo-control;
#X obj 132 162 bng 15 250 50 0 empty empty empty 0 -6 0 8 -262144 -1
-1;
#X obj 344 278 snapshot~;
#X floatatom 344 299 5 0 0 0 - - -;
#X obj 344 234 tgl 15 0 empty empty empty 0 -6 0 8 -262144 -1 -1 0
1;
#X obj 344 255 metro 50;
#N canvas 0 23 646 348 override 0;
#X obj 36 125 outlet;
#X msg 36 74 manual_override \$1;
#X obj 36 41 tgl 15 0 empty empty empty 0 -6 0 8 -262144 -1 -1 0 1
;
#X obj 238 89 bng 15 250 50 0 empty empty empty 0 -6 0 8 -262144 -1
-1;
#X text 62 44 turn off internal clock;
#X text 259 89 manually trigger the next event;
#X connect 1 0 0 0;
#X connect 2 0 1 0;
#X connect 3 0 0 0;
#X restore 23 203 pd override;
#X text 218 184 is there a pdq external?;
#X obj 159 333 lpp-meters;
#X obj 9 5 lpp-icon markov~;
#X text 220 43 - 1st order Markov chains for basic melodic coherence
, f 67;
#X text 376 222 see phase of each individual note (useful for post
processing), f 35;
#X obj 159 231 lyonpotpourri/markov~ 10;
#X connect 0 0 1 0;
#X connect 1 0 12 0;
#X connect 1 0 12 1;
#X connect 2 0 16 0;
#X connect 3 0 2 0;
#X connect 4 0 16 0;
#X connect 5 0 2 0;
#X connect 6 0 7 0;
#X connect 8 0 9 0;
#X connect 9 0 6 0;
#X connect 10 0 16 0;
#X connect 16 0 0 0;
#X connect 16 1 6 0;
