#N canvas 472 54 747 552 12;
#X obj 169 162 phasor~ 0.2;
#X obj 25 162 noise~;
#X obj 26 359 vu 15 120 empty empty -1 -8 0 10 -66577 -1 1 0;
#N canvas 0 22 450 300 meter 0;
#X obj 110 164 snapshot~;
#X obj 126 114 tgl 15 0 empty empty empty 17 7 0 10 -262144 -1 -1 1
1;
#X floatatom 110 187 5 0 0 0 - - -;
#X obj 110 91 env~ 1024;
#X obj 126 140 metro 100;
#X obj 109 211 - 100;
#X obj 231 46 loadbang;
#X msg 231 71 1;
#X obj 109 246 outlet;
#X obj 110 51 inlet~;
#X connect 0 0 2 0;
#X connect 1 0 4 0;
#X connect 2 0 5 0;
#X connect 3 0 0 0;
#X connect 4 0 0 0;
#X connect 5 0 8 0;
#X connect 6 0 7 0;
#X connect 7 0 1 0;
#X connect 9 0 3 0;
#X restore 25 316 pd meter;
#X obj 90 359 vu 15 120 empty empty -1 -8 0 10 -66577 -1 1 0;
#N canvas 0 22 450 300 meter 0;
#X obj 110 164 snapshot~;
#X obj 126 114 tgl 15 0 empty empty empty 17 7 0 10 -262144 -1 -1 1
1;
#X floatatom 110 187 5 0 0 0 - - -;
#X obj 110 91 env~ 1024;
#X obj 126 140 metro 100;
#X obj 109 211 - 100;
#X obj 231 46 loadbang;
#X msg 231 71 1;
#X obj 109 246 outlet;
#X obj 110 51 inlet~;
#X connect 0 0 2 0;
#X connect 1 0 4 0;
#X connect 2 0 5 0;
#X connect 3 0 0 0;
#X connect 4 0 0 0;
#X connect 5 0 8 0;
#X connect 6 0 7 0;
#X connect 7 0 1 0;
#X connect 9 0 3 0;
#X restore 89 316 pd meter;
#X obj 155 359 vu 15 120 empty empty -1 -8 0 10 -66577 -1 1 0;
#N canvas 0 22 450 300 meter 0;
#X obj 110 164 snapshot~;
#X obj 126 114 tgl 15 0 empty empty empty 17 7 0 10 -262144 -1 -1 1
1;
#X floatatom 110 187 5 0 0 0 - - -;
#X obj 110 91 env~ 1024;
#X obj 126 140 metro 100;
#X obj 109 211 - 100;
#X obj 231 46 loadbang;
#X msg 231 71 1;
#X obj 109 246 outlet;
#X obj 110 51 inlet~;
#X connect 0 0 2 0;
#X connect 1 0 4 0;
#X connect 2 0 5 0;
#X connect 3 0 0 0;
#X connect 4 0 0 0;
#X connect 5 0 8 0;
#X connect 6 0 7 0;
#X connect 7 0 1 0;
#X connect 9 0 3 0;
#X restore 154 316 pd meter;
#X obj 221 359 vu 15 120 empty empty -1 -8 0 10 -66577 -1 1 0;
#N canvas 0 23 450 300 meter 0;
#X obj 110 164 snapshot~;
#X obj 126 114 tgl 15 0 empty empty empty 17 7 0 10 -262144 -1 -1 1
1;
#X floatatom 110 187 5 0 0 0 - - -;
#X obj 110 91 env~ 1024;
#X obj 126 140 metro 100;
#X obj 109 211 - 100;
#X obj 231 46 loadbang;
#X msg 231 71 1;
#X obj 109 246 outlet;
#X obj 110 51 inlet~;
#X connect 0 0 2 0;
#X connect 1 0 4 0;
#X connect 2 0 5 0;
#X connect 3 0 0 0;
#X connect 4 0 0 0;
#X connect 5 0 8 0;
#X connect 6 0 7 0;
#X connect 7 0 1 0;
#X connect 9 0 3 0;
#X restore 220 316 pd meter;
#X text 197 215 arg: number of outlets;
#X obj 27 19 lpp-icon npan~;
#X msg 329 435 \; pd dsp \$1;
#X obj 329 397 tgl 15 0 empty empty empty 17 7 0 10 -262144 -1 -1 0
1;
#X text 349 398 turn on DACs;
#X text 252 44 - perimeter panning for an arbitrary number of channel
outputs, f 69;
#X text 27 110 Left inlet is signal to pan. Right inlet (ranging from
0-1) determines perimeter pan location.;
#X obj 25 218 lyonpotpourri/npan~ 4;
#X connect 0 0 17 1;
#X connect 1 0 17 0;
#X connect 3 0 2 0;
#X connect 5 0 4 0;
#X connect 7 0 6 0;
#X connect 9 0 8 0;
#X connect 13 0 12 0;
#X connect 17 0 3 0;
#X connect 17 1 5 0;
#X connect 17 2 7 0;
#X connect 17 3 9 0;
