#N canvas 600 60 790 526 12;
#X floatatom 43 173 5 0 0 2 frequency oscil-frequency-in -;
#N canvas 450 214 639 421 built-in-waveforms 0;
#X msg 135 88 square;
#X msg 186 89 triangle;
#X msg 254 89 buzz;
#X msg 299 89 sine;
#X msg 26 43 harmcount \$1;
#X floatatom 26 23 5 1 128 0 - - -;
#X msg 343 88 sawtooth;
#X msg 374 221 harmcount \$1;
#X floatatom 324 175 5 0 0 0 - - -;
#X obj 324 195 t b f;
#X msg 324 219 buzz;
#X obj 327 154 hsl 40 15 1 40 0 0 empty empty empty -2 -6 0 8 -36928
-1 -1 0 1;
#X text 131 69 band-limited waveforms;
#X text 325 133 or do it dynamically;
#X msg 272 312 fadetime 50;
#X text 236 295 make sure your fade time is short for fast changes
;
#X text 118 45 set how many harmonics in bl waveforms;
#X obj 121 344 s \$0-oscil-msgs;
#X connect 0 0 17 0;
#X connect 1 0 17 0;
#X connect 2 0 17 0;
#X connect 3 0 17 0;
#X connect 4 0 17 0;
#X connect 5 0 4 0;
#X connect 6 0 17 0;
#X connect 7 0 17 0;
#X connect 8 0 9 0;
#X connect 9 0 10 0;
#X connect 9 1 7 0;
#X connect 10 0 17 0;
#X connect 11 0 8 0;
#X connect 14 0 17 0;
#X restore 222 366 pd built-in-waveforms;
#N canvas 371 122 880 507 user-waveforms 0;
#X msg 105 81 0 0 0.1 0 0.25 0.5 0 0 0.3 0.1 0.05;
#X msg 120 107 0 0.1 0.3 0 0 0 0 0.5 0 0 0.7 0 0 0.2 0.1;
#X msg 130 129 0 0.1 0.1 1 1 0.1 0.1;
#X msg 140 151 0 1 0.5 0.25 0.125 0.0625;
#X text 45 33 list relative weights of harmonics \, starting with DC
;
#X msg 145 198 0 1;
#X text 171 199 this is a sine;
#X obj 105 332 s \$0-oscil-msgs;
#X msg 436 237 amph 0 1 0 0.5 0.5 0.25 0.2;
#X text 447 172 specify both amplitude and phase. The first entry is
for DC \, which has no phase. Following that \, enter [amp \, phase]
pairs \, where phase is specified as a fraction of 2PI. A phase of
0.5 would be 180 degrees \, or PI radians.;
#X connect 0 0 7 0;
#X connect 1 0 7 0;
#X connect 2 0 7 0;
#X connect 3 0 7 0;
#X connect 5 0 7 0;
#X connect 8 0 7 0;
#X restore 222 392 pd user-waveforms;
#X obj 43 231 lyonpotpourri/oscil~ 220 8192 square 16;
#X obj 43 304 lpp-meters;
#X obj 35 17 lpp-icon oscil~;
#X text 328 233 args: freq \, table length \, waveform \, harmonics
available waveforms are: square \, triangle \, buzz \, sine \, and
sawtooth;
#N canvas 0 23 450 300 init 0;
#X obj 78 90 loadbang;
#X msg 78 113 220;
#X obj 78 148 s oscil-frequency-in;
#X connect 0 0 1 0;
#X connect 1 0 2 0;
#X restore 222 418 pd init;
#X text 246 54 - custom oscillator with interpolation between waveforms
;
#X obj 209 201 r \$0-oscil-msgs;
#N canvas 308 135 823 472 interpolation 0;
#X obj 77 394 s \$0-oscil-msgs;
#X msg 77 79 fadetime 5000;
#X msg 107 109 fadetime 50;
#X text 73 62 waveform interpolation time (ms);
#X msg 134 160 fadetime \$1;
#X floatatom 134 134 5 5 30000 0 - - -;
#X msg 284 175 interpolate \$1;
#X obj 284 143 tgl 15 0 empty empty empty 17 7 0 10 -262144 -1 -1 0
1;
#X msg 257 319 fadetype \$1;
#X obj 257 263 vradio 15 1 0 3 empty empty empty 0 -8 0 10 -262144
-1 -1 1;
#X text 282 263 no fade;
#X text 283 295 equal power fade;
#X text 283 280 linear fade (default);
#X text 313 130 Turn on linear interpolation for waveform lookup (and
potentially smoother waveforms). With a large table size \, you might
not hear much difference.;
#X text 346 317 select option for interpolating from one waveform to
the next, f 62;
#X connect 1 0 0 0;
#X connect 2 0 0 0;
#X connect 4 0 0 0;
#X connect 5 0 4 0;
#X connect 6 0 0 0;
#X connect 7 0 6 0;
#X connect 8 0 0 0;
#X connect 9 0 8 0;
#X restore 222 340 pd interpolation;
#X text 36 109 An oscillator with arbitrary waveforms \, table length
and crossfade between different waveforms;
#X text 86 171 <= signal input is also fine;
#X connect 0 0 3 0;
#X connect 3 0 4 0;
#X connect 3 0 4 1;
#X connect 9 0 3 0;
