#N canvas 325 251 646 534 12;
#X obj 51 372 vu 15 120 empty empty -1 -8 0 10 -66577 -1 1 0;
#N canvas 0 22 450 300 meter 0;
#X obj 110 164 snapshot~;
#X obj 126 114 tgl 15 0 empty empty empty 17 7 0 10 -262144 -1 -1 1
1;
#X floatatom 110 187 5 0 0 0 - - -;
#X obj 110 91 env~ 1024;
#X obj 126 140 metro 100;
#X obj 109 211 - 100;
#X obj 231 46 loadbang;
#X msg 231 71 1;
#X obj 109 246 outlet;
#X obj 110 51 inlet~;
#X connect 0 0 2 0;
#X connect 1 0 4 0;
#X connect 2 0 5 0;
#X connect 3 0 0 0;
#X connect 4 0 0 0;
#X connect 5 0 8 0;
#X connect 6 0 7 0;
#X connect 7 0 1 0;
#X connect 9 0 3 0;
#X restore 50 329 pd meter;
#X obj 117 373 vu 15 120 empty empty -1 -8 0 10 -66577 -1 1 0;
#N canvas 0 22 450 300 meter 0;
#X obj 110 164 snapshot~;
#X obj 126 114 tgl 15 0 empty empty empty 17 7 0 10 -262144 -1 -1 1
1;
#X floatatom 110 187 5 0 0 0 - - -;
#X obj 110 91 env~ 1024;
#X obj 126 140 metro 100;
#X obj 109 211 - 100;
#X obj 231 46 loadbang;
#X msg 231 71 1;
#X obj 109 246 outlet;
#X obj 110 51 inlet~;
#X connect 0 0 2 0;
#X connect 1 0 4 0;
#X connect 2 0 5 0;
#X connect 3 0 0 0;
#X connect 4 0 0 0;
#X connect 5 0 8 0;
#X connect 6 0 7 0;
#X connect 7 0 1 0;
#X connect 9 0 3 0;
#X restore 116 329 pd meter;
#X obj 184 373 vu 15 120 empty empty -1 -8 0 10 -66577 -1 1 0;
#N canvas 0 22 450 300 meter 0;
#X obj 110 164 snapshot~;
#X obj 126 114 tgl 15 0 empty empty empty 17 7 0 10 -262144 -1 -1 1
1;
#X floatatom 110 187 5 0 0 0 - - -;
#X obj 110 91 env~ 1024;
#X obj 126 140 metro 100;
#X obj 109 211 - 100;
#X obj 231 46 loadbang;
#X msg 231 71 1;
#X obj 109 246 outlet;
#X obj 110 51 inlet~;
#X connect 0 0 2 0;
#X connect 1 0 4 0;
#X connect 2 0 5 0;
#X connect 3 0 0 0;
#X connect 4 0 0 0;
#X connect 5 0 8 0;
#X connect 6 0 7 0;
#X connect 7 0 1 0;
#X connect 9 0 3 0;
#X restore 183 329 pd meter;
#X obj 251 374 vu 15 120 empty empty -1 -8 0 10 -66577 -1 1 0;
#N canvas 0 22 450 300 meter 0;
#X obj 110 164 snapshot~;
#X obj 126 114 tgl 15 0 empty empty empty 17 7 0 10 -262144 -1 -1 1
1;
#X floatatom 110 187 5 0 0 0 - - -;
#X obj 110 91 env~ 1024;
#X obj 126 140 metro 100;
#X obj 109 211 - 100;
#X obj 231 46 loadbang;
#X msg 231 71 1;
#X obj 109 246 outlet;
#X obj 110 51 inlet~;
#X connect 0 0 2 0;
#X connect 1 0 4 0;
#X connect 2 0 5 0;
#X connect 3 0 0 0;
#X connect 4 0 0 0;
#X connect 5 0 8 0;
#X connect 6 0 7 0;
#X connect 7 0 1 0;
#X connect 9 0 3 0;
#X restore 250 329 pd meter;
#X obj 153 185 hsl 128 15 0 1 0 0 empty empty X-coordinate -2 -8 0
10 -262144 -1 -1 3700 1;
#X obj 253 227 hsl 128 15 0 1 0 0 empty empty Y-coordinate -2 -8 0
10 -262144 -1 -1 7200 1;
#X obj 50 210 osc~ 440;
#X text 339 263 Spatial positioning of output channels;
#X text 339 281 is as follows:;
#X text 504 317 3;
#X text 436 317 4;
#X text 506 369 1;
#X text 435 369 2;
#X obj 50 262 lyonpotpourri/quadpan~, f 29;
#X obj 28 19 lpp-icon quadpan~;
#X msg 365 471 \; pd dsp \$1;
#X obj 365 435 tgl 15 0 empty empty empty 17 7 0 10 -262144 -1 -1 1
1;
#X text 385 439 turn DACs on;
#X text 244 60 - X/Y panning within a plane for joystick-style control
;
#X text 48 117 [quadpan~] takes in X/Y cordinates (as signal or float)
to position an input signal within a quadraphonic plane.;
#X connect 1 0 0 0;
#X connect 3 0 2 0;
#X connect 5 0 4 0;
#X connect 7 0 6 0;
#X connect 8 0 17 1;
#X connect 9 0 17 2;
#X connect 10 0 17 0;
#X connect 17 0 1 0;
#X connect 17 1 3 0;
#X connect 17 2 5 0;
#X connect 17 3 7 0;
#X connect 20 0 19 0;
