#N canvas 727 369 835 861 12;
#X obj 513 565 bng 15 250 50 0 empty empty empty 0 -6 0 8 -262144 -1
-1;
#X obj 52 251 bng 15 250 50 0 empty empty empty 0 -6 0 8 -262144 -1
-1;
#X obj 536 565 bng 15 250 50 0 empty empty empty 0 -6 0 8 -262144 -1
-1;
#X obj 577 565 bng 15 250 50 0 empty empty empty 0 -6 0 8 -262144 -1
-1;
#N canvas 547 354 816 547 toner 0;
#X obj 94 286 *~;
#X obj 210 154 loadbang;
#X obj 94 347 outlet~;
#X obj 169 100 inlet~;
#X msg 211 191 2 50 50 50;
#X obj 94 178 osc~ 322;
#X obj 211 218 lyonpotpourri/adsr~;
#X connect 0 0 2 0;
#X connect 1 0 4 0;
#X connect 3 0 6 0;
#X connect 4 0 6 0;
#X connect 5 0 0 0;
#X connect 6 0 0 1;
#X restore 154 565 pd toner;
#N canvas 547 354 820 551 toner 0;
#X obj 94 286 *~;
#X obj 210 154 loadbang;
#X obj 115 347 outlet~;
#X obj 169 100 inlet~;
#X msg 211 191 2 50 50 50;
#X obj 94 178 osc~ 444;
#X obj 211 218 lyonpotpourri/adsr~;
#X connect 0 0 2 0;
#X connect 1 0 4 0;
#X connect 3 0 6 0;
#X connect 4 0 6 0;
#X connect 5 0 0 0;
#X connect 6 0 0 1;
#X restore 218 565 pd toner;
#N canvas 547 354 828 559 toner 0;
#X obj 94 286 *~;
#X obj 210 154 loadbang;
#X obj 115 347 outlet~;
#X obj 169 100 inlet~;
#X msg 211 191 2 50 50 50;
#X obj 94 178 osc~ 670;
#X obj 211 218 lyonpotpourri/adsr~;
#X connect 0 0 2 0;
#X connect 1 0 4 0;
#X connect 3 0 6 0;
#X connect 4 0 6 0;
#X connect 5 0 0 0;
#X connect 6 0 0 1;
#X restore 348 564 pd toner;
#N canvas 452 295 832 563 toner 0;
#X obj 94 286 *~;
#X obj 210 154 loadbang;
#X obj 115 347 outlet~;
#X obj 169 100 inlet~;
#X msg 211 191 2 50 50 50;
#X obj 94 178 osc~ 190;
#X obj 211 218 lyonpotpourri/adsr~;
#X connect 0 0 2 0;
#X connect 1 0 4 0;
#X connect 3 0 6 0;
#X connect 4 0 6 0;
#X connect 5 0 0 0;
#X connect 6 0 0 1;
#X restore 90 565 pd toner;
#N canvas 547 354 828 559 toner 0;
#X obj 94 286 *~;
#X obj 210 154 loadbang;
#X obj 115 347 outlet~;
#X obj 169 100 inlet~;
#X obj 94 178 osc~ 976;
#X msg 211 191 2 50 50 200;
#X obj 211 218 lyonpotpourri/adsr~;
#X connect 0 0 2 0;
#X connect 1 0 5 0;
#X connect 3 0 6 0;
#X connect 4 0 0 0;
#X connect 5 0 6 0;
#X connect 6 0 0 1;
#X restore 410 564 pd toner;
#N canvas 460 303 824 555 toner 0;
#X obj 94 286 *~;
#X obj 210 154 loadbang;
#X obj 115 347 outlet~;
#X obj 169 100 inlet~;
#X msg 211 191 2 50 50 50;
#X obj 94 179 osc~ 555;
#X obj 211 218 lyonpotpourri/adsr~;
#X connect 0 0 2 0;
#X connect 1 0 4 0;
#X connect 3 0 6 0;
#X connect 4 0 6 0;
#X connect 5 0 0 0;
#X connect 6 0 0 1;
#X restore 283 564 pd toner;
#X obj 557 565 bng 15 250 50 0 empty empty empty 0 -6 0 8 -262144 -1
-1;
#X obj 598 565 bng 15 250 50 0 empty empty empty 0 -6 0 8 -262144 -1
-1;
#X obj 618 565 bng 15 250 50 0 empty empty empty 0 -6 0 8 -262144 -1
-1;
#X obj 90 324 r samm-msgs;
#N canvas 0 23 574 436 operation 0;
#X obj 127 186 s samm-msgs;
#X msg 109 134 tempo \$1;
#X floatatom 109 105 5 0 0 0 - - -;
#X msg 109 79 20;
#X msg 215 112 arm;
#X msg 253 115 resume;
#X msg 313 115 pause;
#X msg 34 107 beatinfo;
#X msg 250 210 mute \$1;
#X obj 251 174 tgl 15 0 empty empty empty 0 -6 0 8 -262144 -1 -1 0
1;
#X connect 1 0 0 0;
#X connect 2 0 1 0;
#X connect 3 0 2 0;
#X connect 4 0 0 0;
#X connect 5 0 0 0;
#X connect 6 0 0 0;
#X connect 7 0 0 0;
#X connect 8 0 0 0;
#X connect 9 0 8 0;
#X restore 349 269 pd operation;
#X text 385 357 args: tempo \, [beat subdivisions]*;
#X obj 514 524 lyonpotpourri/click2bang~;
#X obj 536 503 lyonpotpourri/click2bang~;
#X obj 557 483 lyonpotpourri/click2bang~;
#X obj 577 463 lyonpotpourri/click2bang~;
#X obj 598 443 lyonpotpourri/click2bang~;
#X obj 618 423 lyonpotpourri/click2bang~;
#X obj 90 354 lyonpotpourri/samm~ 20 5 7 11 13 19 1;
#X obj 52 274 lyonpotpourri/click~;
#N canvas 639 436 544 322 tempo-specs 0;
#X obj 48 283 s samm-msgs;
#X msg 90 71 divbeats 1 19 13 11 7 5;
#X msg 102 116 msbeats 250 450 333 1600 777 630;
#X msg 48 30 beats 0.1 0.2 0.333 0.25 0.4 0.5;
#X msg 98 162 ratiobeats 1 12 1 16 1 9 1 7 3 32 5.5 11;
#X text 46 9 specify each tempo with its time interval in beats;
#X text 91 53 specify each tempo as a subdivision of a beat (quarter
note);
#X text 108 96 specify each tempo with time interval in ms.;
#X text 107 142 specify each tempo as a ratio (relative to a whole
note);
#X msg 106 205 sampbeats 44100 22050 11025 88200 6677 9313;
#X text 131 185 specify each tempo in samples;
#X msg 157 243 beatinfo;
#X text 155 227 diagnostics;
#X connect 1 0 0 0;
#X connect 2 0 0 0;
#X connect 3 0 0 0;
#X connect 4 0 0 0;
#X connect 9 0 0 0;
#X connect 11 0 0 0;
#X restore 350 294 pd tempo-specs;
#X obj 90 609 lyonpotpourri/shoehorn~ 6 2;
#X obj 90 647 lpp-meters;
#X obj 39 23 lpp-icon samm~;
#X text 259 55 - sample-accurate multiple metronomes;
#X text 38 123 [samm~] stands for "sample accurate multiple metronomes."
A single sample value of 1 is output on each downbeat \; at all other
times the output value is zero. While [click2bang~] may be used to
round to the nearest sample vector to control objects such as [tabplay~]
\, optimal timing will be had from objects designed to respond to click
triggers \, such as [lyonpotpourri/player~]., f 74;
#X text 73 251 <= reinitialize timer;
#X connect 1 0 23 0;
#X connect 4 0 25 1;
#X connect 5 0 25 2;
#X connect 6 0 25 4;
#X connect 7 0 25 0;
#X connect 8 0 25 5;
#X connect 9 0 25 3;
#X connect 13 0 22 0;
#X connect 16 0 0 0;
#X connect 17 0 2 0;
#X connect 18 0 10 0;
#X connect 19 0 3 0;
#X connect 20 0 11 0;
#X connect 21 0 12 0;
#X connect 22 0 7 0;
#X connect 22 0 16 0;
#X connect 22 1 4 0;
#X connect 22 1 17 0;
#X connect 22 2 5 0;
#X connect 22 2 18 0;
#X connect 22 3 9 0;
#X connect 22 3 19 0;
#X connect 22 4 6 0;
#X connect 22 4 20 0;
#X connect 22 5 8 0;
#X connect 22 5 21 0;
#X connect 23 0 22 0;
#X connect 25 0 26 0;
#X connect 25 1 26 1;
