#N canvas 426 42 805 761 12;
#N canvas 0 22 450 300 (subpatch) 0;
#X array track1 100000 float 2;
#X coords 0 1 99999 -1 200 100 1;
#X restore 54 293 graph;
#X obj 521 319 noise~;
#X obj 521 348 *~ 0.1;
#X obj 321 423 bng 15 250 50 0 empty empty empty 17 7 0 10 -262144
-1 -1;
#X floatatom 321 540 5 0 0 0 - - -;
#X msg 217 636 \; track1 const 0;
#X text 214 615 clear track;
#X obj 57 504 bng 15 250 50 0 empty empty empty 17 7 0 10 -262144 -1
-1;
#X obj 419 698 s sarec.messages;
#X obj 194 455 r sarec.messages;
#X obj 264 304 vradio 15 1 0 4 empty empty record_mode 0 -8 0 10 -204800
-4160 -1 1;
#X text 282 303 record;
#X text 282 320 overdub;
#X text 283 335 punch;
#X text 282 351 lock track;
#N canvas 310 149 676 348 status-messages 0;
#X msg 88 133 overdub;
#X msg 147 133 punch;
#X msg 37 133 record;
#X msg 192 134 lock;
#X obj 90 68 sel 0 1 2 3;
#X obj 48 213 s sarec.messages;
#X obj 81 28 inlet;
#X text 229 64 record \, overdub \, and punch should be familiar. When
lock mode is selected \, you can't record onto the track.;
#X connect 0 0 5 0;
#X connect 1 0 5 0;
#X connect 2 0 5 0;
#X connect 3 0 5 0;
#X connect 4 0 2 0;
#X connect 4 1 0 0;
#X connect 4 2 1 0;
#X connect 4 3 3 0;
#X connect 6 0 4 0;
#X restore 264 375 pd status-messages;
#X msg 419 672 punchfade \$1;
#X msg 419 641 5;
#X msg 456 641 50;
#X msg 492 641 150;
#N canvas 149 234 450 300 show-record-phase 0;
#X obj 53 132 snapshot~;
#X msg 179 95 1;
#X obj 179 116 metro 50;
#X obj 179 76 loadbang;
#X text 94 154 record phase;
#X obj 53 60 inlet~;
#X obj 53 199 outlet;
#X connect 0 0 6 0;
#X connect 1 0 2 0;
#X connect 2 0 0 0;
#X connect 3 0 1 0;
#X connect 5 0 0 0;
#X restore 321 515 pd show-record-phase;
#N canvas 600 60 450 300 set-record-region 0;
#X obj 42 244 s sarec.messages;
#X msg 49 120 region 500 1000;
#X msg 37 93 region 0 0;
#X text 40 75 set region to entire array (default);
#X text 167 120 select region within array (ms.);
#X msg 61 159 region 0 1500;
#X msg 99 200 region 200 400;
#X connect 1 0 0 0;
#X connect 2 0 0 0;
#X connect 5 0 0 0;
#X connect 6 0 0 0;
#X restore 419 594 pd set-record-region;
#X obj 57 554 lpp-meters;
#X obj 57 529 tabplay~ track1;
#X obj 321 492 lyonpotpourri/sarec~ track1 1;
#X obj 35 22 lpp-icon sarec~;
#X text 191 422 trigger record =>;
#X text 41 135 [sarec~] implements sample-accurate recording \, including
precision punching and overdubs. The record mode is set with various
messages. Recording to the specified region within an array is triggered
with a click \, thus a sample-accurate event.;
#X obj 321 454 lyonpotpourri/click~;
#X text 93 497 <= play back recorded track;
#X obj 521 392 lyonpotpourri/clean_selector~ 2;
#N canvas 600 60 551 463 pad 0;
#X msg 126 63 87.3071 261.626 329.628 391.995;
#X obj 126 123 unpack f f f f;
#X obj 126 239 phasor~;
#X obj 126 269 -~ 0.5;
#X obj 194 242 phasor~;
#X obj 197 272 -~ 0.5;
#X obj 261 242 phasor~;
#X obj 258 274 -~ 0.5;
#X obj 330 242 phasor~;
#X obj 330 272 -~ 0.5;
#X obj 126 33 loadbang;
#X obj 126 299 lyonpotpourri/flanjah~ 10 -0.47 0.434 0.251 0.99;
#X obj 126 329 outlet~;
#X obj 390 45 inlet;
#X msg 390 79 \$1 50;
#X obj 390 113 line~;
#X obj 126 209 *~;
#X obj 188 209 *~;
#X obj 254 209 *~;
#X obj 316 209 *~;
#X obj 143 379 loadbang;
#X msg 143 406 1;
#X obj 143 429 s \$0-ptranspose;
#X connect 0 0 1 0;
#X connect 1 0 16 0;
#X connect 1 1 17 0;
#X connect 1 2 18 0;
#X connect 1 3 19 0;
#X connect 2 0 3 0;
#X connect 3 0 11 0;
#X connect 4 0 5 0;
#X connect 5 0 11 0;
#X connect 6 0 7 0;
#X connect 7 0 11 0;
#X connect 8 0 9 0;
#X connect 9 0 11 0;
#X connect 10 0 0 0;
#X connect 11 0 12 0;
#X connect 13 0 14 0;
#X connect 14 0 15 0;
#X connect 15 0 16 1;
#X connect 15 0 17 1;
#X connect 15 0 18 1;
#X connect 15 0 19 1;
#X connect 16 0 2 0;
#X connect 17 0 4 0;
#X connect 18 0 6 0;
#X connect 19 0 8 0;
#X connect 20 0 21 0;
#X connect 21 0 22 0;
#X restore 626 317 pd pad;
#X text 416 623 set taper (ms) for punch mode;
#X obj 626 351 *~ 0.2;
#X obj 431 262 vradio 15 1 0 2 empty empty empty 0 -8 0 10 -262144
-1 -1 1;
#X msg 431 315 channel \$1;
#X msg 217 710 \; track1 normalize;
#X text 214 690 normalize track;
#X text 449 260 select noise input;
#X text 450 277 select pad input;
#X text 266 61 - sample-accurate recording;
#X text 409 393 input signal =>;
#X text 416 574 select region of track to record on;
#X floatatom 626 289 5 0 0 0 - - -;
#X obj 629 239 hsl 128 15 0.5 2 0 0 empty \$0-ptranspose pad_transpose
-2 -8 0 10 -262130 -1 -1 4233 1;
#X connect 1 0 2 0;
#X connect 2 0 30 0;
#X connect 3 0 28 0;
#X connect 7 0 23 0;
#X connect 9 0 24 0;
#X connect 10 0 15 0;
#X connect 16 0 8 0;
#X connect 17 0 16 0;
#X connect 18 0 16 0;
#X connect 19 0 16 0;
#X connect 20 0 4 0;
#X connect 23 0 22 0;
#X connect 23 0 22 1;
#X connect 24 0 20 0;
#X connect 28 0 24 0;
#X connect 30 0 24 1;
#X connect 31 0 33 0;
#X connect 33 0 30 1;
#X connect 34 0 35 0;
#X connect 35 0 30 0;
#X connect 43 0 31 0;
#X connect 44 0 43 0;
