#N canvas 600 60 540 602 12;
#X obj 173 217 bng 30 550 50 0 empty empty empty 0 -6 0 8 -260679 -51584
-1;
#X obj 29 285 *~;
#X obj 29 237 osc~;
#N canvas 600 60 474 324 messages 0;
#X obj 133 195 outlet;
#N canvas 40 386 462 312 clock 0;
#X obj 141 124 outlet;
#X obj 45 212 send~ external_clock;
#X msg 45 148 tempo \$1;
#X floatatom 45 122 5 0 0 0 - - -;
#X msg 141 98 external_clock \$1;
#X obj 141 51 tgl 40 0 empty empty empty 0 -6 0 8 -4061 -1 -1 0 1;
#X text 139 30 must toggle DACs before switch takes effect;
#X obj 45 173 lyonpotpourri/samm~ 60 0.25;
#X connect 2 0 7 0;
#X connect 3 0 2 0;
#X connect 4 0 0 0;
#X connect 5 0 4 0;
#X connect 7 0 1 0;
#X restore 207 159 pd clock;
#X obj 205 234 outlet~;
#X obj 205 198 receive~ external_clock;
#N canvas 0 23 474 324 other-controls 0;
#X obj 28 244 outlet;
#X msg 28 128 banggate \$1;
#X obj 28 77 tgl 40 0 empty empty empty 0 -6 0 8 -4061 -1 -1 1 1;
#X msg 163 204 adsrgate \$1;
#X obj 163 157 tgl 40 0 empty empty empty 0 -6 0 8 -4061 -1 -1 0 1
;
#X text 209 177 on by default \, zero turns off ADSR;
#X text 70 90 open gate for outlet bang on sequence start;
#X obj 28 21 loadbang;
#X msg 28 45 1;
#X connect 1 0 0 0;
#X connect 2 0 1 0;
#X connect 3 0 0 0;
#X connect 4 0 3 0;
#X connect 7 0 8 0;
#X connect 8 0 2 0;
#X restore 133 64 pd other-controls;
#N canvas 600 60 673 475 sequences 0;
#X obj 72 368 outlet;
#X msg 196 213 440 469.333 605 660 704;
#X msg 169 312 500 600 700 1300 888 340 3000 773 773;
#X obj 223 270 loadbang;
#X msg 72 109 rand \$1;
#X obj 72 55 tgl 40 0 empty empty empty 0 -6 0 8 -4061 -1 -1 0 1;
#X obj 125 152 tgl 40 0 empty empty empty 0 -6 0 8 -4061 -1 -1 0 1
;
#X msg 125 206 retro \$1;
#X text 169 157 play sequence in reverse;
#X text 368 216 load a different sequence;
#X text 131 73 randomize playback order of sequence;
#X connect 1 0 0 0;
#X connect 2 0 0 0;
#X connect 3 0 2 0;
#X connect 4 0 0 0;
#X connect 5 0 4 0;
#X connect 6 0 7 0;
#X connect 7 0 0 0;
#X restore 176 98 pd sequences;
#X connect 1 0 0 0;
#X connect 3 0 2 0;
#X connect 4 0 0 0;
#X connect 5 0 0 0;
#X restore 29 158 pd messages;
#X obj 29 188 lyonpotpourri/sigseq~;
#X obj 29 365 lpp-meters;
#X obj 21 17 lpp-icon sigseq~;
#X text 120 163 <= controls here;
#X text 66 288 output from second outlet is an ADSR envelope;
#X text 212 223 indicate start of sequence;
#X text 27 110 a simple sample-accurate sequencer with a synchronized
adsr envelope., f 69;
#X text 247 45 - sample-accurate number sequencer;
#X connect 1 0 5 0;
#X connect 1 0 5 1;
#X connect 2 0 1 0;
#X connect 3 0 4 0;
#X connect 3 1 4 0;
#X connect 4 0 2 0;
#X connect 4 1 1 1;
#X connect 4 2 0 0;
