#N canvas 471 14 679 761 12;
#N canvas 371 171 1056 561 splitter 0;
#X obj 543 338 block~ 128 1;
#X obj 203 269 outlet~;
#X obj 263 269 outlet~;
#X obj 324 269 outlet~;
#X obj 384 269 outlet~;
#X obj 444 269 outlet~;
#X obj 505 269 outlet~;
#X obj 565 269 outlet~;
#X obj 143 39 inlet~;
#X obj 143 269 outlet~;
#X obj 188 154 unpack f f f f f f f f;
#X msg 188 121 1 1 1 1 1 1 1 1;
#X obj 686 269 outlet;
#X obj 188 86 loadbang;
#X obj 686 39 inlet;
#X obj 625 269 outlet~;
#X obj 550 39 inlet;
#X obj 25 112 r splitbank-msg;
#X obj 595 39 inlet;
#X obj 640 39 inlet;
#X obj 143 213 lyonpotpourri/splitbank~ 8, f 78;
#X text 708 214 arg: number of sub-spectra (must be a power of 2);
#X text 65 334 FFT size is (signal-vector-size * overlap-factor). The
overlap factor is specified internally \, and defaults to 8.0. Overlap-add
and windowing is performed internally \, so the [block~] overlap factor
must be 1.0. The vector size of 128 used here produces an FFT size
of 1024 by default., f 41;
#X connect 8 0 20 0;
#X connect 10 0 20 1;
#X connect 10 1 20 2;
#X connect 10 2 20 3;
#X connect 10 3 20 4;
#X connect 10 4 20 5;
#X connect 10 5 20 6;
#X connect 10 6 20 7;
#X connect 10 7 20 8;
#X connect 11 0 10 0;
#X connect 13 0 11 0;
#X connect 14 0 20 12;
#X connect 16 0 20 9;
#X connect 17 0 20 0;
#X connect 18 0 20 10;
#X connect 19 0 20 11;
#X connect 20 0 9 0;
#X connect 20 1 1 0;
#X connect 20 2 2 0;
#X connect 20 3 3 0;
#X connect 20 4 4 0;
#X connect 20 5 5 0;
#X connect 20 6 6 0;
#X connect 20 7 7 0;
#X connect 20 8 15 0;
#X connect 20 9 12 0;
#X restore 51 441 pd splitter;
#X obj 407 541 tgl 15 0 empty empty empty 17 7 0 10 -262144 -1 -1 0
1;
#X msg 407 599 \; pd dsp \$1;
#X obj 414 366 hsl 128 15 0 1 0 0 empty empty manual_override -2 -8
0 10 -262144 -1 -1 0 1;
#X floatatom 294 650 5 0 0 1 sync_signal - -;
#X obj 287 247 hsl 128 15 0 0.01 0 0 empty empty synthesis_threshold
-2 -8 0 10 -262144 -1 -1 0 1;
#N canvas 184 87 542 291 soundsource 0;
#X obj 53 243 outlet~;
#X obj 53 185 -~ 0.5;
#X obj 53 155 phasor~ 440;
#X floatatom 53 81 5 0 0 0 - - -;
#X obj 161 155 phasor~ 440;
#X obj 161 185 -~ 0.5;
#X obj 161 124 *~ 1.5;
#X msg 329 114 100;
#X obj 329 92 loadbang;
#X obj 53 35 inlet;
#X obj 329 137 s splitbank-freq;
#X connect 1 0 0 0;
#X connect 2 0 1 0;
#X connect 3 0 2 0;
#X connect 3 0 6 0;
#X connect 4 0 5 0;
#X connect 5 0 0 0;
#X connect 6 0 4 0;
#X connect 7 0 10 0;
#X connect 8 0 7 0;
#X connect 9 0 3 0;
#X restore 51 309 pd soundsource;
#X floatatom 51 284 5 0 0 2 frequency splitbank-freq -;
#X obj 333 288 hsl 128 15 0 1 0 0 empty empty table_offset -2 -8 0
10 -262144 -1 -1 0 1;
#X obj 367 328 hsl 128 15 0 1 0 0 empty empty bin_offset -2 -8 0 10
-262144 -1 -1 0 1;
#N canvas 617 105 817 690 state 0;
#X obj 49 66 inlet;
#X msg 49 93 set \$1 \$2 \$3 \$4 \$5 \$6 \$7 \$8 \$9 \$10 \$11 \$12
\$13 \$14 \$15 \$16 \$17 \$18 \$19 \$20 \$21 \$22 \$23 \$24 \$25 \$26
\$27 \$28 \$29 \$30 \$31 \$32 \$33 \$34 \$35 \$36 \$37 \$38 \$39 \$40
\$41 \$42 \$43 \$44 \$45 \$46 \$47 \$48 \$49 \$50 \$51 \$52 \$53 \$54
\$55 \$56 \$57 \$58 \$59 \$60 \$61 \$62 \$63 \$64 \$65 \$66 \$67 \$68
\$69 \$70 \$71 \$72 \$73 \$74 \$75 \$76 \$77 \$78 \$79 \$80 \$81 \$82
\$83 \$84 \$85 \$86 \$87 \$88 \$89 \$90 \$91 \$92 \$93 \$94 \$95 \$96
\$97 \$98 \$99 \$100 \$101 \$102 \$103 \$104 \$105 \$106 \$107 \$108
\$109 \$110 \$111 \$112 \$113 \$114 \$115 \$116 \$117 \$118 \$119 \$120
\$121 \$122 \$123 \$124 \$125 \$126 \$127 \$128 \$129 \$130 \$131 \$132
\$133 \$134 \$135 \$136 \$137 \$138 \$139 \$140 \$141 \$142 \$143 \$144
\$145 \$146 \$147 \$148 \$149 \$150 \$151 \$152 \$153 \$154 \$155 \$156
\$157 \$158 \$159 \$160 \$161 \$162 \$163 \$164 \$165 \$166 \$167 \$168
\$169 \$170 \$171 \$172 \$173 \$174 \$175 \$176 \$177 \$178 \$179 \$180
\$181 \$182 \$183 \$184 \$185 \$186 \$187 \$188 \$189 \$190 \$191 \$192
\$193 \$194 \$195 \$196 \$197 \$198 \$199 \$200 \$201 \$202 \$203 \$204
\$205 \$206 \$207 \$208 \$209 \$210 \$211 \$212 \$213 \$214 \$215 \$216
\$217 \$218 \$219 \$220 \$221 \$222 \$223 \$224 \$225 \$226 \$227 \$228
\$229 \$230 \$231 \$232 \$233 \$234 \$235 \$236 \$237 \$238 \$239 \$240
\$241 \$242 \$243 \$244 \$245 \$246 \$247 \$248 \$249 \$250 \$251 \$252
\$253 \$254 \$255 \$256 \$257 \$258 \$259 \$260 \$261 \$262 \$263 \$264
\$265 \$266 \$267 \$268 \$269 \$270 \$271 \$272 \$273 \$274 \$275 \$276
\$277 \$278 \$279 \$280 \$281 \$282 \$283 \$284 \$285 \$286 \$287 \$288
\$289 \$290 \$291 \$292 \$293 \$294 \$295 \$296 \$297 \$298 \$299 \$300
\$301 \$302 \$303 \$304 \$305 \$306 \$307 \$308 \$309 \$310 \$311 \$312
\$313 \$314 \$315 \$316 \$317 \$318 \$319 \$320 \$321 \$322 \$323 \$324
\$325 \$326 \$327 \$328 \$329 \$330 \$331 \$332 \$333 \$334 \$335 \$336
\$337 \$338 \$339 \$340 \$341 \$342 \$343 \$344 \$345 \$346 \$347 \$348
\$349 \$350 \$351 \$352 \$353 \$354 \$355 \$356 \$357 \$358 \$359 \$360
\$361 \$362 \$363 \$364 \$365 \$366 \$367 \$368 \$369 \$370 \$371 \$372
\$373 \$374 \$375 \$376 \$377 \$378 \$379 \$380 \$381 \$382 \$383 \$384
\$385 \$386 \$387 \$388 \$389 \$390 \$391 \$392 \$393 \$394 \$395 \$396
\$397 \$398 \$399 \$400 \$401 \$402 \$403 \$404 \$405 \$406 \$407 \$408
\$409 \$410 \$411 \$412 \$413 \$414 \$415 \$416 \$417 \$418 \$419 \$420
\$421 \$422 \$423 \$424 \$425 \$426 \$427 \$428 \$429 \$430 \$431 \$432
\$433 \$434 \$435 \$436 \$437 \$438 \$439 \$440 \$441 \$442 \$443 \$444
\$445 \$446 \$447 \$448 \$449 \$450 \$451 \$452 \$453 \$454 \$455 \$456
\$457 \$458 \$459 \$460 \$461 \$462 \$463 \$464 \$465 \$466 \$467 \$468
\$469 \$470 \$471 \$472 \$473 \$474 \$475 \$476 \$477 \$478 \$479 \$480
\$481 \$482 \$483 \$484 \$485 \$486 \$487 \$488 \$489 \$490 \$491 \$492
\$493 \$494 \$495 \$496 \$497 \$498 \$499 \$500 \$501 \$502 \$503 \$504
\$505 \$506 \$507 \$508 \$509 \$510 \$511 \$512 512;
#X msg 433 93 208 38 275 355 285 390 214 472 338 365 87 218 124 456
91 335 373 81 189 56 152 397 193 295 14 236 146 103 356 339 58 140
4 405 296 223 221 380 431 232 228 464 348 136 477 350 511 506 239 43
400 197 371 10 430 455 167 500 323 334 203 97 90 432 461 453 179 505
265 100 294 404 142 381 49 475 21 321 28 316 67 436 424 362 8 284 374
443 376 349 157 209 360 5 117 271 258 109 132 343 54 71 368 66 403
501 439 419 138 353 474 478 312 204 454 226 42 114 198 476 354 433
471 358 311 210 196 216 278 361 392 177 288 274 231 440 24 370 162
89 442 99 169 379 450 364 401 184 41 254 266 50 279 75 272 264 195
466 447 438 393 130 7 308 15 260 300 502 135 118 409 441 51 484 106
331 495 345 470 163 104 205 425 30 481 3 276 344 127 246 257 230 336
82 64 351 217 320 427 188 215 337 185 247 273 325 80 147 164 182 398
451 206 384 116 238 241 225 307 200 369 363 486 160 35 192 435 122
2 377 31 202 421 17 172 304 318 286 418 261 509 119 259 483 462 108
488 229 77 498 391 458 446 57 183 319 352 428 76 315 191 326 480 299
115 26 389 105 493 12 452 86 346 291 492 170 503 410 330 155 48 174
224 110 125 251 47 220 385 123 213 227 289 262 120 72 497 243 22 94
314 171 332 137 79 280 33 0 277 422 253 473 305 113 402 267 347 292
134 9 156 341 340 429 34 20 175 290 139 6 310 489 411 282 78 154 460
44 37 23 32 485 148 303 459 69 165 187 406 168 93 357 444 445 313 268
248 465 372 178 153 293 414 129 25 367 479 328 151 237 329 281 255
98 324 207 395 415 327 322 95 186 194 19 504 222 102 469 131 18 166
270 487 212 496 366 180 298 59 244 201 283 386 383 45 449 16 507 29
145 240 297 55 190 176 412 1 408 52 46 40 387 73 27 53 490 211 219
482 342 88 508 317 150 68 333 13 85 173 143 84 434 36 65 301 302 158
499 426 269 463 101 112 39 121 494 417 92 242 388 263 382 399 133 491
159 63 234 141 457 437 233 467 250 83 309 413 181 111 107 249 378 235
256 306 60 74 468 359 287 420 423 96 149 126 61 396 416 510 252 128
62 394 407 375 448 199 144 161 70 245 11 512;
#X text 434 69 current bin mapping;
#X connect 0 0 1 0;
#X connect 1 0 2 0;
#X restore 321 546 pd state;
#N canvas 0 22 695 522 sig2float 0;
#X obj 200 68 inlet~;
#X obj 343 201 outlet;
#X obj 343 168 snapshot~;
#X msg 343 106 1;
#X obj 343 82 loadbang;
#X obj 343 133 metro 50;
#X connect 0 0 2 0;
#X connect 2 0 1 0;
#X connect 3 0 5 0;
#X connect 4 0 3 0;
#X connect 5 0 2 0;
#X restore 294 577 pd sig2float;
#N canvas 53 282 753 442 interval-sets 0;
#X msg 70 67 1 1 1 1 1 1 1 1;
#X msg 83 91 1 1.1 1.2 1.3 1.4 1.5 1.6 1.7;
#X msg 93 118 1 1.01 1.02 1.03 1.04 1.05 1.06 1.07;
#X obj 64 355 s splitbank-msg;
#X msg 57 36 1 1.25 1.5 2 0.5 1 1.875 2.25;
#X msg 108 147 1 1.059 1.122 1.189 1.259 1.334 1.414 1.498;
#X msg 123 175 1 1.122 1.259 1.414 1.587 1.781 1.999 2.244;
#X msg 137 210 1 1.189 1.414 1.681 1.999 2.378 2.828 3.363;
#X msg 153 232 1 1.0009 1.002 1.003 1.004 1.005 1.006 1.007;
#X text 169 311 list unpacks to frequency multipliers for each spectrum
fragment;
#X msg 167 263 0.5 0.666666 0.8 1 1.25 1.5 1.875 2;
#X connect 0 0 3 0;
#X connect 1 0 3 0;
#X connect 2 0 3 0;
#X connect 4 0 3 0;
#X connect 5 0 3 0;
#X connect 6 0 3 0;
#X connect 7 0 3 0;
#X connect 8 0 3 0;
#X connect 10 0 3 0;
#X restore 239 762 pd interval-sets;
#N canvas 111 193 455 381 frequency-synthesis-constraints 0;
#X obj 14 214 s splitbank-msg;
#X msg 67 86 maxfreq 600;
#X msg 168 137 minfreq 200;
#X msg 151 112 minfreq 0;
#X msg 14 35 maxfreq 19000;
#X msg 41 62 maxfreq 1500;
#X msg 179 161 minfreq 900;
#X text 9 252 The range of frequencies to be synthesized can be specfied
by minimum and maximum. Actually produced frequencies will vary outside
this range \, depending on the current interval set. Constraining frequency
range reduces the CPU load. When the minimum frequency equals or exceeds
the maximum \, no sound is produced.;
#X connect 1 0 0 0;
#X connect 2 0 0 0;
#X connect 3 0 0 0;
#X connect 4 0 0 0;
#X connect 5 0 0 0;
#X connect 6 0 0 0;
#X restore 239 788 pd frequency-synthesis-constraints;
#N canvas 611 297 618 567 basic-messages 0;
#X msg 58 115 manual_override \$1;
#X msg 143 364 scramble;
#X msg 135 333 ramptime 5000;
#X obj 40 476 s splitbank-msg;
#X msg 95 233 powerfade \$1;
#X obj 95 206 tgl 15 0 empty empty empty 17 7 0 10 -262144 -1 -1 0
1;
#X msg 116 297 mute \$1;
#X obj 116 260 tgl 15 0 empty empty empty 17 7 0 10 -262144 -1 -1 0
1;
#X msg 42 51 fftinfo;
#X msg 30 17 showstate;
#X obj 58 84 tgl 15 0 empty empty empty 17 7 0 10 -262144 -1 -1 0 1
;
#X text 206 365 set new random mapping;
#X text 173 297 mute all sound and release CPU cycles;
#X text 184 118 manually move between two settings when this toggle
is on;
#X text 100 52 print FFT size and related information;
#X text 97 18 show the current bin mapping;
#X text 227 326 set transition time (in milliseconds) to move from
one mapping to the next;
#X obj 125 92 s splitbank-man-override;
#X text 288 420 change overlap factor (DACs must be restarted);
#X msg 223 506 \; pd dsp \$1;
#X obj 223 453 t b b;
#X msg 258 476 1;
#X msg 223 476 0;
#X obj 267 452 delay 1;
#X msg 222 419 overlap 4;
#X text 185 230 select equal-power cross fade \, rather than linear
(default);
#X connect 0 0 3 0;
#X connect 1 0 3 0;
#X connect 2 0 3 0;
#X connect 4 0 3 0;
#X connect 5 0 4 0;
#X connect 6 0 3 0;
#X connect 7 0 6 0;
#X connect 8 0 3 0;
#X connect 9 0 3 0;
#X connect 10 0 0 0;
#X connect 10 0 17 0;
#X connect 20 0 23 0;
#X connect 20 1 22 0;
#X connect 21 0 19 0;
#X connect 22 0 19 0;
#X connect 23 0 21 0;
#X connect 24 0 3 0;
#X connect 24 0 20 0;
#X restore 238 736 pd basic-messages;
#X text 136 441 <- main DSP block~ subpatch;
#N canvas 131 124 508 327 timing 0;
#N canvas 95 351 507 328 steadyclock 0;
#X obj 83 25 inlet;
#X obj 133 86 t 1 f f;
#X msg 206 148 ramptime \$1;
#X obj 217 287 s splitbank-msg;
#X obj 133 197 metro 1000;
#X msg 133 242 scramble;
#X obj 83 57 sel 0;
#X msg 84 112 0;
#X connect 0 0 6 0;
#X connect 1 0 4 0;
#X connect 1 1 4 1;
#X connect 1 2 2 0;
#X connect 2 0 3 0;
#X connect 4 0 5 0;
#X connect 5 0 3 0;
#X connect 6 0 7 0;
#X connect 6 1 1 0;
#X connect 7 0 4 0;
#X restore 26 292 pd steadyclock;
#X msg 73 87 7000;
#X msg 190 231 0;
#X msg 97 120 2000;
#X msg 167 176 100;
#X text 217 233 turn off clock;
#X msg 26 53 20000;
#X text 115 30 Set transition time in milliseconds. this smooth crossfade
does not operate when manual override is selected;
#X msg 123 151 500;
#X obj 231 106 r splitbank-man-override;
#X obj 231 139 sel 0 1;
#X msg 358 249 5000;
#X obj 358 175 r splitbank-startbang;
#X obj 358 214 delay 50;
#X connect 1 0 0 0;
#X connect 2 0 0 0;
#X connect 3 0 0 0;
#X connect 4 0 0 0;
#X connect 6 0 0 0;
#X connect 8 0 0 0;
#X connect 9 0 10 0;
#X connect 10 0 1 0;
#X connect 10 1 2 0;
#X connect 11 0 0 0;
#X connect 12 0 13 0;
#X connect 13 0 11 0;
#X restore 240 816 pd timing;
#X obj 496 590 sel 1;
#X obj 496 615 s splitbank-startbang;
#X obj 51 578 lyonpotpourri/shoehorn~ 8 2, f 32;
#X obj 52 673 lpp-meters;
#X obj 36 15 lpp-icon splitbank~;
#X text 42 119 [splitbank~] splits an incoming sound into a number
of sub-spectra \, each of which is independently tunable. Each sub-spectrum
emerges from its own outlet \, from where it can be fully spatialized
\, or collapsed to stereo as shown in this example. The internal design
of the FFT processing requires that the object be deployed inside a
[block~] subpatcher \, in order to gain control over the FFT size.
;
#X text 268 47 - tunable spectrum splitter;
#X connect 0 0 19 0;
#X connect 0 1 19 1;
#X connect 0 2 19 2;
#X connect 0 3 19 3;
#X connect 0 4 19 4;
#X connect 0 5 19 5;
#X connect 0 6 19 6;
#X connect 0 7 19 7;
#X connect 0 8 11 0;
#X connect 0 9 10 0;
#X connect 1 0 2 0;
#X connect 1 0 17 0;
#X connect 3 0 0 4;
#X connect 5 0 0 1;
#X connect 6 0 0 0;
#X connect 7 0 6 0;
#X connect 8 0 0 2;
#X connect 9 0 0 3;
#X connect 11 0 4 0;
#X connect 17 0 18 0;
#X connect 19 0 20 0;
#X connect 19 1 20 1;
