#N canvas 600 60 585 609 12;
#N canvas 565 63 450 300 taps 0;
#X obj 43 111 noise~;
#X obj 118 79 metro 1000;
#X msg 118 56 1;
#X obj 118 33 loadbang;
#X obj 168 201 line~;
#X obj 63 226 *~;
#X obj 63 260 outlet~;
#X msg 118 155 1;
#X msg 209 176 0.05 50;
#X msg 271 176 0.01 900;
#X msg 340 177 0 50;
#X obj 209 149 delay 1;
#X obj 271 149 delay 50;
#X obj 339 149 delay 900;
#X connect 0 0 5 0;
#X connect 1 0 7 0;
#X connect 1 0 11 0;
#X connect 2 0 1 0;
#X connect 3 0 2 0;
#X connect 4 0 5 1;
#X connect 5 0 6 0;
#X connect 7 0 4 0;
#X connect 8 0 4 0;
#X connect 9 0 4 0;
#X connect 10 0 4 0;
#X connect 11 0 8 0;
#X connect 11 0 12 0;
#X connect 12 0 9 0;
#X connect 12 0 13 0;
#X connect 13 0 10 0;
#X restore 28 253 pd taps;
#X obj 57 279 r squash.messages;
#X obj 28 312 lyonpotpourri/squash~;
#X obj 28 369 lpp-meters;
#X obj 22 24 lpp-icon squash~;
#X text 24 132 [squash~] is based on a compression algorithm by Christopher
Penrose. It can be useful for extreme effects \, and is notable for
employing the overlap-add system found in FFTease externals \, though
all processing is done in the time domain here. This processor is capable
of generating extreme amplitude ranges. Use with caution \, with a
low playback gain \, and do not use this external in performance until
you are very familiar with its operation., f 77;
#N canvas 600 60 450 300 init 0;
#X obj 54 114 symbol \$0-ratio;
#X msg 54 172 \; \$1 0.75 \; \$2 0.4;
#X obj 166 114 symbol \$0-threshold;
#X obj 54 143 pack s s;
#X obj 54 85 t b b;
#X obj 54 27 loadbang;
#X obj 54 56 bng 15 250 50 0 empty empty empty 17 7 0 10 -262144 -1
-1;
#X connect 0 0 3 0;
#X connect 2 0 3 1;
#X connect 3 0 1 0;
#X connect 4 0 0 0;
#X connect 4 1 2 0;
#X connect 5 0 6 0;
#X connect 6 0 4 0;
#X restore 210 504 pd init;
#N canvas 741 67 528 412 controls 0;
#X obj 31 139 s squash.messages;
#X msg 31 115 ratio \$1;
#X obj 34 71 hsl 128 15 0.5 1 0 0 empty \$0-ratio ratio -2 -8 0 10
-204786 -1 -1 6350 1;
#X floatatom 31 95 5 0.5 1.5 0 - - -;
#X obj 29 243 s squash.messages;
#X obj 32 175 hsl 128 15 0 0.001 0 0 empty empty noise_threshold -2
-8 0 10 -204786 -1 -1 0 1;
#X floatatom 29 199 7 0 0 0 - - -;
#X msg 29 219 nt \$1;
#X text 171 174 set noise floor;
#X obj 28 356 s squash.messages;
#X obj 31 288 hsl 128 15 0 1 0 0 empty \$0-threshold compression_threshold
-2 -8 0 10 -204786 -1 -1 5080 1;
#X floatatom 28 312 7 0 0 0 - - -;
#X msg 28 332 thresh \$1;
#X text 170 287 set compression threshold;
#X text 29 18 lower ratio values give higher compression \, values
greater than 1 result in expansion. (warning - low values can make
output VERY loud., f 71;
#X connect 1 0 0 0;
#X connect 2 0 3 0;
#X connect 3 0 1 0;
#X connect 5 0 6 0;
#X connect 6 0 7 0;
#X connect 7 0 4 0;
#X connect 10 0 11 0;
#X connect 11 0 12 0;
#X connect 12 0 9 0;
#X restore 210 474 pd controls;
#X text 247 48 - an extreme compressor;
#X connect 0 0 2 0;
#X connect 1 0 2 0;
#X connect 2 0 3 0;
#X connect 2 0 3 1;
