#N canvas 600 60 634 555 12;
#N canvas 600 60 458 308 input-sound 0;
#X obj 130 125 phasor~ 96;
#X obj 130 158 -~ 0.5;
#X obj 130 190 outlet~;
#X connect 0 0 1 0;
#X connect 1 0 2 0;
#X restore 126 143 pd input-sound;
#X floatatom 343 200 5 0 0 0 - - -;
#N canvas 600 60 454 304 delaytime 0;
#X obj 177 107 osc~ 0.1;
#X obj 177 140 *~ 9.9;
#X obj 177 169 +~ 10;
#X obj 177 198 outlet~;
#X connect 0 0 1 0;
#X connect 1 0 2 0;
#X connect 2 0 3 0;
#X restore 250 143 pd delaytime;
#X obj 346 174 hsl 120 20 -0.99 0.99 0 0 empty \$0-feedback feedback_amount
-2 -8 1 10 -76846 -1 -1 1503 1;
#X obj 35 143 r vdp-msgs;
#X obj 157 299 lpp-meters;
#X obj 157 228 lyonpotpourri/vdp~ 20 0 0.5;
#N canvas 600 60 450 300 init 0;
#X obj 38 72 s \$0-feedback;
#X msg 38 44 -0.74;
#X obj 38 17 loadbang;
#X connect 1 0 0 0;
#X connect 2 0 1 0;
#X restore 328 392 pd init;
#N canvas 467 74 774 403 capture-to-array 0;
#N canvas 0 22 450 300 (subpatch) 0;
#X array vdp-catch 882 float 2;
#X coords 0 1 882 -1 200 140 1;
#X restore 35 85 graph;
#X obj 263 152 s vdp-msgs;
#X msg 263 117 copy_to_buffer vdp-catch;
#X text 259 84 copy whatever is in the delay line to an external array
;
#X connect 2 0 1 0;
#X restore 328 419 pd capture-to-array;
#X obj 29 20 lpp-icon vdp~;
#X text 249 52 - a simple \, self-contained delay unit with feedback
;
#X connect 0 0 6 0;
#X connect 1 0 6 2;
#X connect 2 0 6 1;
#X connect 3 0 1 0;
#X connect 4 0 6 0;
#X connect 6 0 5 1;
#X connect 6 0 5 0;
