#N canvas 600 60 571 762 12;
#X msg 127 369 0 0 0 1 1;
#X msg 129 395 0 0.5 0 0 1 0.3 1;
#X msg 129 422 0 0.2 0 0.2 0 0.2 0 0 1 0 0 0 0 0 0.5;
#X text 126 351 select a weighted summation of Chebychev polynomials
;
#X obj 398 396 loadbang;
#X obj 31 195 osc~ 200;
#X obj 102 241 osc~ 0.1;
#X obj 102 262 *~ 0.49;
#X obj 102 285 +~ 0.51;
#X obj 31 316 *~;
#X obj 31 444 lyonpotpourri/waveshape~;
#X obj 31 480 lyonpotpourri/killdc~;
#X obj 31 522 lpp-meters;
#X obj 19 15 lpp-icon waveshape~;
#X text 27 109 [waveshape~] stores a user-specified sum of Chebychev
polynomials in a table which is then used as a transfer function. Waveshaping
is a non-linear process - higher amplitude of input will generally
increase the amount of harmonic distortion.;
#X text 95 193 <= sinewave input;
#X text 166 287 <= time-varying gain also varies output spectrum;
#X text 229 49 - waveshaper;
#X connect 0 0 10 0;
#X connect 1 0 10 0;
#X connect 2 0 10 0;
#X connect 4 0 2 0;
#X connect 5 0 9 0;
#X connect 6 0 7 0;
#X connect 7 0 8 0;
#X connect 8 0 9 1;
#X connect 9 0 10 0;
#X connect 10 0 11 0;
#X connect 11 0 12 0;
#X connect 11 0 12 1;
