#N canvas 600 60 668 440 12;
#N canvas 600 60 662 420 basic-fft 0;
#X obj 246 48 inlet~;
#X obj 246 323 outlet~;
#X obj 246 118 rfft~, f 6;
#X obj 90 323 block~ 1024 8;
#X obj 246 227 rifft~;
#X obj 246 257 *~ 0;
#X obj 480 163 *;
#X msg 432 85 1 1024 8;
#X obj 432 116 unpack f f f;
#X obj 432 195 /;
#X floatatom 432 227 12 0 0 0 - - -;
#X text 426 244 rescale factor;
#X obj 432 54 loadbang;
#X text 59 303 sets FFT size and overlap;
#X obj 246 80 lyonpotpourri/windowvec~;
#X obj 246 290 lyonpotpourri/windowvec~;
#X obj 246 197 lyonpotpourri/poltocar~;
#X obj 246 153 lyonpotpourri/cartopol~;
#X text 30 176 Any processing would go here =>;
#X connect 0 0 14 0;
#X connect 2 0 17 0;
#X connect 2 1 17 1;
#X connect 4 0 5 0;
#X connect 5 0 15 0;
#X connect 6 0 9 1;
#X connect 7 0 8 0;
#X connect 8 0 9 0;
#X connect 8 1 6 0;
#X connect 8 2 6 1;
#X connect 9 0 10 0;
#X connect 10 0 5 1;
#X connect 12 0 7 0;
#X connect 14 0 2 0;
#X connect 15 0 1 0;
#X connect 16 0 4 0;
#X connect 16 1 4 1;
#X connect 17 0 16 0;
#X connect 17 1 16 1;
#X restore 32 156 pd basic-fft;
#X obj 32 129 osc~ 440;
#X text 35 94 windowvec~ - applies a Hann window to each incoming signal
vector. Useful for the the windowing portion of an overlap-add process.
, f 66;
#X obj 32 197 lpp-meters;
#X obj 27 9 lpp-icon windowvec~;
#X text 239 49 - signal vector windowing;
#X obj 201 341 pdcontrol;
#X msg 201 277 browse https://www.areditions.com/lyon-designing-audio-objects-for-max-msp-and-pd-das025.html
;
#X obj 201 239 bng 15 250 50 0 empty empty empty 17 7 0 10 -262144
-1 -1;
#X text 227 236 For more information on what this external is useful
for \, see Chapter 8 of my book on designing audio objects.;
#X connect 0 0 3 0;
#X connect 0 0 3 1;
#X connect 1 0 0 0;
#X connect 7 0 6 0;
#X connect 8 0 7 0;
